<svg xmlns="http://www.w3.org/2000/svg" width="276.2" height="276.2"><path fill="#0D1D47" d="M33.1 2.5a32.3 32.3 0 10.1 64.6 32.3 32.3 0 000-64.6zM137.7 2.5a32.3 32.3 0 100 64.6 32.3 32.3 0 000-64.6zM243.9 67a32.3 32.3 0 10-.1-64.6 32.3 32.3 0 000 64.7zM32.3 170.5a32.3 32.3 0 100-64.6 32.3 32.3 0 000 64.6zM136.8 170.5a32.3 32.3 0 100-64.6 32.3 32.3 0 000 64.6zM243 170.5a32.3 32.3 0 100-64.6 32.3 32.3 0 000 64.6zM33 209.1a32.3 32.3 0 10.1 64.7 32.3 32.3 0 000-64.7zM137.6 209.1a32.3 32.3 0 100 64.7 32.3 32.3 0 000-64.7zM243.8 209.1a32.3 32.3 0 100 64.7 32.3 32.3 0 000-64.7z"/></svg>