<svg width="18" height="18" viewBox="0 0 18 18" fill="none" xmlns="http://www.w3.org/2000/svg">
<rect x="0.5" y="2.5" width="17" height="15" stroke="black"/>
<path d="M2.5 16.5L6 14.5V13C5.83333 12.6667 5.5 11.7 5.5 10.5C5.5 9 6 8 7.5 8C9 8 9.5 9 9.5 10.5C9.5 11.7 9.16667 12.6667 9 13V14.5L12 16.5" stroke="black"/>
<rect x="12" y="7" width="5" height="1" fill="black"/>
<rect width="5" height="1" transform="matrix(1 0 0 -1 12 10)" fill="black"/>
<path d="M7 5L7 0L8 -3.64262e-08L8 5L7 5Z" fill="black"/>
<rect x="11" y="5" width="5" height="1" transform="rotate(-90 11 5)" fill="black"/>
<rect x="12" y="11" width="5" height="1" fill="black"/>
<rect y="5" width="18" height="1" fill="black"/>
</svg>
