<?xml version="1.0" encoding="UTF-8"?>
<!DOCTYPE svg PUBLIC "-//W3C//DTD SVG 1.1//EN" "http://www.w3.org/Graphics/SVG/1.1/DTD/svg11.dtd">
<svg xmlns="http://www.w3.org/2000/svg" version="1.1" width="2554px" height="1602px" style="shape-rendering:geometricPrecision; text-rendering:geometricPrecision; image-rendering:optimizeQuality; fill-rule:evenodd; clip-rule:evenodd" xmlns:xlink="http://www.w3.org/1999/xlink">
<g><path style="opacity:0.999" fill="#e8f2fa" d="M 2420.5,1568.5 C 2331.9,1569.5 2243.24,1569.83 2154.5,1569.5C 2156.49,1567.54 2157.99,1565.2 2159,1562.5C 2161.27,1550.88 2166.94,1541.22 2176,1533.5C 2180.16,1527.38 2180.49,1521.04 2177,1514.5C 2172.67,1508.67 2168.17,1503 2163.5,1497.5C 2180.43,1489.36 2196.1,1479.2 2210.5,1467C 2232.66,1445.91 2239.83,1420.41 2232,1390.5C 2223.94,1360.22 2210.44,1332.72 2191.5,1308C 2170.5,1305.39 2149.5,1302.89 2128.5,1300.5C 2126,1286.3 2124.33,1271.97 2123.5,1257.5C 2134.51,1257.89 2145.51,1258.06 2156.5,1258C 2147.6,1240.69 2135.93,1225.52 2121.5,1212.5C 2119.75,1181.32 2117.92,1149.99 2116,1118.5C 2113.16,1102.14 2107.49,1086.81 2099,1072.5C 2093.4,1062.57 2087.4,1052.9 2081,1043.5C 2080.78,1038.68 2079.95,1034.01 2078.5,1029.5C 2082.23,1024.82 2084.73,1019.49 2086,1013.5C 2087.78,997.191 2089.28,980.858 2090.5,964.5C 2105.91,972.292 2120.08,981.959 2133,993.5C 2144.65,1027.37 2153.32,1062.04 2159,1097.5C 2159.67,1098.25 2160.5,1098.59 2161.5,1098.5C 2161.49,1100.02 2160.82,1101.18 2159.5,1102C 2153.45,1105.35 2147.78,1109.18 2142.5,1113.5C 2145.61,1114.25 2148.61,1114.59 2151.5,1114.5C 2147.41,1118.35 2145.91,1123.02 2147,1128.5C 2150.01,1135 2154.51,1140 2160.5,1143.5C 2162.43,1143.41 2163.59,1142.41 2164,1140.5C 2163.88,1135.41 2165.22,1130.74 2168,1126.5C 2172.75,1122.42 2176.75,1117.76 2180,1112.5C 2180.81,1107.98 2180.65,1103.65 2179.5,1099.5C 2185.51,1063.04 2186.68,1026.38 2183,989.5C 2181.96,983.324 2180.29,977.324 2178,971.5C 2173.12,961.809 2167.29,952.809 2160.5,944.5C 2181.25,937.384 2190.08,922.718 2187,900.5C 2185.94,889.551 2181.11,880.717 2172.5,874C 2165,869.413 2157.33,865.08 2149.5,861C 2144.77,858.444 2141.77,854.611 2140.5,849.5C 2148.85,830.697 2143.18,818.864 2123.5,814C 2116.16,813.073 2108.82,812.073 2101.5,811C 2094.95,808.982 2089.79,805.148 2086,799.5C 2081.78,791.064 2078.12,782.398 2075,773.5C 2068.51,757.679 2057.01,747.513 2040.5,743C 1997.88,731.057 1969.38,745.89 1955,787.5C 1950.09,803.343 1949.43,819.343 1953,835.5C 1956.58,842.826 1959.75,850.326 1962.5,858C 1962.33,859.167 1962.17,860.333 1962,861.5C 1959.67,865.5 1957.33,869.5 1955,873.5C 1954.51,875.134 1954.34,876.801 1954.5,878.5C 1948.07,882.411 1941.74,886.577 1935.5,891C 1920.54,904.144 1905.2,916.811 1889.5,929C 1880.34,935.752 1870.67,941.752 1860.5,947C 1847.11,951.049 1833.45,953.716 1819.5,955C 1799.88,957.345 1780.21,959.178 1760.5,960.5C 1754.96,955.064 1748.3,951.731 1740.5,950.5C 1739.79,949.596 1738.79,949.263 1737.5,949.5C 1730.82,908.419 1723.82,867.419 1716.5,826.5C 1831.93,775.616 1946.93,723.949 2061.5,671.5C 2025.17,589.508 1988.33,507.841 1951,426.5C 1929.18,436.271 1907.35,445.937 1885.5,455.5C 1912.02,416.033 1939.52,376.7 1968,337.5C 1969.75,335.788 1970.42,333.788 1970,331.5C 1897,279.833 1824,228.167 1751,176.5C 1692.74,259.371 1634.24,342.038 1575.5,424.5C 1331.14,466.783 1086.8,509.283 842.5,552C 862.674,666.048 882.341,780.215 901.5,894.5C 888.546,892.502 875.546,892.168 862.5,893.5C 875.693,909.194 887.526,925.861 898,943.5C 899.079,946.063 899.579,948.729 899.5,951.5C 896.206,951.741 893.206,950.908 890.5,949C 869.571,932.739 850.571,914.406 833.5,894C 812.03,892.284 792.364,897.284 774.5,909C 765.793,917.284 762.126,927.45 763.5,939.5C 762.693,952.575 765.86,964.575 773,975.5C 776.251,979.422 780.084,982.588 784.5,985C 803.185,984.863 821.852,984.029 840.5,982.5C 845.549,982.525 850.549,982.858 855.5,983.5C 856.614,984.723 856.781,986.056 856,987.5C 843.392,998.043 828.892,1004.54 812.5,1007C 806.5,1007.33 800.5,1007.67 794.5,1008C 803.328,1021.5 813.661,1033.84 825.5,1045C 834.012,1052.34 843.845,1056.84 855,1058.5C 867.365,1056.9 878.532,1052.4 888.5,1045C 894.648,1039.43 900.981,1034.1 907.5,1029C 912.186,1026.15 917.186,1024.15 922.5,1023C 923.337,1021.99 923.67,1020.82 923.5,1019.5C 924.698,1024.67 925.698,1030 926.5,1035.5C 914.41,1038.04 903.077,1042.54 892.5,1049C 886.292,1055.54 880.459,1062.37 875,1069.5C 874.333,1072.17 874.333,1074.83 875,1077.5C 877.543,1079.35 880.376,1080.52 883.5,1081C 900.588,1083.46 917.255,1082.29 933.5,1077.5C 936.113,1091.33 938.446,1105.33 940.5,1119.5C 933.453,1119.34 926.453,1119.84 919.5,1121C 915.198,1121.55 911.198,1122.88 907.5,1125C 917.338,1134.01 927.005,1143.17 936.5,1152.5C 937.309,1154.03 937.976,1155.69 938.5,1157.5C 934.293,1160.04 931.627,1163.71 930.5,1168.5C 929.596,1169.21 929.263,1170.21 929.5,1171.5C 917.051,1157.29 905.551,1142.29 895,1126.5C 893.874,1125.06 892.374,1124.39 890.5,1124.5C 854.924,1130.97 820.924,1142.14 788.5,1158C 785.61,1159.94 782.944,1162.1 780.5,1164.5C 800.398,1173.12 820.065,1182.28 839.5,1192C 845.337,1195.42 851.004,1199.08 856.5,1203C 858.625,1204.74 859.458,1206.9 859,1209.5C 856.037,1210.96 852.87,1211.63 849.5,1211.5C 824.914,1208.52 800.914,1203.02 777.5,1195C 767.882,1191.51 758.216,1188.18 748.5,1185C 746.833,1184.33 745.167,1184.33 743.5,1185C 723.326,1196.01 706.493,1210.84 693,1229.5C 685.873,1240.67 683.873,1252.67 687,1265.5C 691.372,1277.92 697.538,1289.25 705.5,1299.5C 693.897,1302.48 682.897,1306.81 672.5,1312.5C 668.317,1314.76 663.984,1316.76 659.5,1318.5C 663.219,1279.53 666.553,1240.53 669.5,1201.5C 672.837,1156.3 676.504,1111.13 680.5,1066C 680.472,1064.93 680.139,1064.1 679.5,1063.5C 685.087,1061.41 688.92,1057.41 691,1051.5C 692.476,1046.59 693.476,1041.59 694,1036.5C 694.667,1023.17 694.667,1009.83 694,996.5C 691.277,968.159 688.444,939.826 685.5,911.5C 686.249,887.841 686.749,864.174 687,840.5C 728.908,799.005 752.241,748.672 757,689.5C 760.627,676.468 757.127,665.968 746.5,658C 716.997,637.22 684.663,622.72 649.5,614.5C 648.23,611.06 646.564,607.727 644.5,604.5C 643.833,605.5 643.167,606.5 642.5,607.5C 636.402,603.65 629.735,602.484 622.5,604C 619.086,604.297 615.753,604.964 612.5,606C 611.484,606.519 610.818,607.353 610.5,608.5C 611.219,610.728 612.552,612.561 614.5,614C 623.455,614.477 630.788,618.144 636.5,625C 639.327,626.664 642.327,627.83 645.5,628.5C 645.511,630.017 646.177,631.184 647.5,632C 668.634,649.302 689.301,667.135 709.5,685.5C 696.407,704.675 684.574,724.675 674,745.5C 671.861,748.939 669.361,752.106 666.5,755C 651.69,758.452 637.357,763.285 623.5,769.5C 623.473,763.949 622.806,758.616 621.5,753.5C 621.528,748.138 621.194,742.805 620.5,737.5C 624.068,736.059 627.734,734.559 631.5,733C 633.053,730.345 634.22,727.512 635,724.5C 636.127,702.928 632.627,682.262 624.5,662.5C 629.95,655.336 630.783,647.669 627,639.5C 621.253,630.379 613.086,624.879 602.5,623C 574.881,621.541 551.048,630.374 531,649.5C 522.627,661.68 521.294,674.68 527,688.5C 534.601,701.778 544.101,713.611 555.5,724C 559.251,727.21 563.584,728.71 568.5,728.5C 569.175,741.007 568.175,753.34 565.5,765.5C 565.062,765.435 564.728,765.601 564.5,766C 565.731,767.405 567.064,768.571 568.5,769.5C 568.167,769.5 567.833,769.5 567.5,769.5C 565.11,767.023 562.11,765.523 558.5,765C 544.637,762.184 530.637,760.517 516.5,760C 505.283,749.783 495.116,738.616 486,726.5C 477.864,717.363 469.364,708.53 460.5,700C 477,678.833 493.5,657.667 510,636.5C 511.009,634.975 511.509,633.308 511.5,631.5C 517.82,629.442 522.32,625.442 525,619.5C 529.214,615.618 533.714,612.118 538.5,609C 541.684,607.194 542.017,605.194 539.5,603C 531.257,602.04 523.257,603.04 515.5,606C 513.714,606.785 512.214,607.951 511,609.5C 510.411,607.137 508.911,606.137 506.5,606.5C 505.977,610.891 505.31,615.224 504.5,619.5C 503.127,619.343 501.793,619.51 500.5,620C 479.749,631.429 460.082,644.429 441.5,659C 430.208,667.955 420.708,678.455 413,690.5C 412.066,693.136 411.232,695.803 410.5,698.5C 423.973,751.632 449.973,797.465 488.5,836C 494.354,840.364 500.021,844.864 505.5,849.5C 504.957,849.56 504.624,849.893 504.5,850.5C 505.609,852.385 506.443,854.385 507,856.5C 508.014,923.537 507.348,990.537 505,1057.5C 505.561,1059.73 506.561,1061.73 508,1063.5C 511.145,1065.98 514.312,1068.31 517.5,1070.5C 516.865,1076.52 516.031,1082.52 515,1088.5C 518.042,1140.42 512.709,1191.42 499,1241.5C 496.028,1252.44 491.695,1262.77 486,1272.5C 477.538,1295.47 471.871,1319.14 469,1343.5C 461.054,1403.63 457.554,1463.96 458.5,1524.5C 455.875,1538.33 454.875,1552.33 455.5,1566.5C 362.173,1568.5 268.506,1569.16 174.5,1568.5C 173.833,1568.5 173.167,1568.5 172.5,1568.5C 110.102,1518.23 66.2692,1454.89 41,1378.5C 19.3715,1301.48 20.7048,1224.81 45,1148.5C 85.8184,1026.63 154.652,923.8 251.5,840C 274.052,819.801 293.219,796.967 309,771.5C 326.813,735.584 337.147,697.584 340,657.5C 344.311,598.2 344.645,538.867 341,479.5C 338.431,435.109 335.098,390.776 331,346.5C 326.41,291.211 334.41,237.877 355,186.5C 382.75,125.75 426.917,81.2496 487.5,53C 544.546,28.2683 604.212,16.435 666.5,17.5C 706.328,18.0637 745.995,20.8971 785.5,26C 852.338,35.584 919.004,46.2507 985.5,58C 1043.74,68.1566 1102.41,73.6566 1161.5,74.5C 1187.27,74.7021 1212.93,73.2021 1238.5,70C 1283.74,61.4852 1329.07,53.4852 1374.5,46C 1469.28,31.2366 1564.62,25.2366 1660.5,28C 1759.7,30.7558 1856.37,47.7558 1950.5,79C 2054.45,114.031 2143.95,171.198 2219,250.5C 2283.33,321.161 2324.33,403.828 2342,498.5C 2353.93,566.396 2348.26,632.729 2325,697.5C 2314.98,720.55 2303.64,742.883 2291,764.5C 2275.45,798.405 2273.45,833.071 2285,868.5C 2295.12,893.426 2308.79,916.093 2326,936.5C 2337.67,949.5 2349.33,962.5 2361,975.5C 2386.7,1001.53 2412.03,1027.86 2437,1054.5C 2467.06,1087.59 2491.4,1124.59 2510,1165.5C 2533.78,1225.73 2538.11,1287.4 2523,1350.5C 2511.25,1397.33 2493.92,1442 2471,1484.5C 2455.11,1513.19 2438.27,1541.19 2420.5,1568.5 Z"/></g>
<g><path style="opacity:1" fill="#ffb508" d="M 829.5,171.5 C 830.312,184.579 827.146,196.912 820,208.5C 801.234,234.933 777.734,256.099 749.5,272C 733.252,281.305 715.919,287.638 697.5,291C 688.891,291.978 680.391,291.478 672,289.5C 671.235,289.57 670.735,289.903 670.5,290.5C 660.592,283.668 657.092,274.334 660,262.5C 661.961,254.244 665.294,246.577 670,239.5C 696.393,204.454 730.227,179.288 771.5,164C 785.149,158.724 799.149,157.39 813.5,160C 820.389,161.73 825.722,165.563 829.5,171.5 Z"/></g>
<g><path style="opacity:1" fill="#ffa000" d="M 784.5,166.5 C 818.315,164.441 827.148,178.441 811,208.5C 790.762,237.204 764.595,258.704 732.5,273C 723.363,276.618 714.029,279.618 704.5,282C 697.5,282.667 690.5,282.667 683.5,282C 670.855,276.867 666.688,267.7 671,254.5C 675.74,242.009 682.74,231.009 692,221.5C 718.04,194.93 748.873,176.597 784.5,166.5 Z"/></g>
<g><path style="opacity:1" fill="#ffb400" d="M 790.5,169.5 C 797.102,169.234 803.436,170.401 809.5,173C 815.053,177.618 816.886,183.451 815,190.5C 812.388,198.391 808.721,205.724 804,212.5C 778.296,244.943 745.463,266.777 705.5,278C 674.492,283.151 665.992,271.651 680,243.5C 707.605,204.955 744.439,180.288 790.5,169.5 Z"/></g>
<g><path style="opacity:1" fill="#ffa109" d="M 829.5,171.5 C 833.617,175.346 835.284,180.18 834.5,186C 834.371,194.389 832.204,202.222 828,209.5C 798.374,253.437 757.874,282.271 706.5,296C 696.384,298.325 686.384,297.992 676.5,295C 674.253,293.723 672.253,292.223 670.5,290.5C 670.735,289.903 671.235,289.57 672,289.5C 680.391,291.478 688.891,291.978 697.5,291C 715.919,287.638 733.252,281.305 749.5,272C 777.734,256.099 801.234,234.933 820,208.5C 827.146,196.912 830.312,184.579 829.5,171.5 Z"/></g>
<g><path style="opacity:1" fill="#d8eaff" d="M 1885.5,455.5 C 1873.12,470.892 1861.46,486.892 1850.5,503.5C 1847.83,507.167 1845.17,510.833 1842.5,514.5C 1823.18,541.796 1803.85,569.129 1784.5,596.5C 1765.17,623.833 1745.83,651.167 1726.5,678.5C 1716.43,691.638 1707.09,705.305 1698.5,719.5C 1695.84,704.964 1693.18,690.297 1690.5,675.5C 1772.16,562.139 1853.16,448.139 1933.5,333.5C 1876.83,293.005 1820,252.671 1763,212.5C 1714.71,280.245 1666.54,348.079 1618.5,416C 1619.45,416.483 1620.45,416.649 1621.5,416.5C 1606.33,419.32 1590.99,421.986 1575.5,424.5C 1634.24,342.038 1692.74,259.371 1751,176.5C 1824,228.167 1897,279.833 1970,331.5C 1970.42,333.788 1969.75,335.788 1968,337.5C 1939.52,376.7 1912.02,416.033 1885.5,455.5 Z"/></g>
<g><path style="opacity:1" fill="#ff9f00" d="M 768.5,194.5 C 775.888,192.575 780.554,195.242 782.5,202.5C 785.5,201.167 788.5,199.833 791.5,198.5C 792.91,200.949 792.576,203.116 790.5,205C 787.136,206.099 783.97,207.599 781,209.5C 776.426,220.393 768.593,228.06 757.5,232.5C 754.598,225.585 756.598,221.085 763.5,219C 765.333,217.167 767.167,215.333 769,213.5C 769.667,211.5 769.667,209.5 769,207.5C 763.794,206.85 759.294,208.517 755.5,212.5C 751.164,218.501 747.331,224.834 744,231.5C 736.641,241.187 726.975,247.187 715,249.5C 712.7,249.506 710.534,249.006 708.5,248C 707.33,245.815 706.164,243.649 705,241.5C 702.122,242.689 699.288,244.022 696.5,245.5C 695.369,243.926 695.202,242.259 696,240.5C 698.889,238.366 702.056,236.699 705.5,235.5C 710.433,223.567 718.767,214.9 730.5,209.5C 731.657,212.784 731.824,216.118 731,219.5C 724.27,222.063 719.77,226.729 717.5,233.5C 718.928,237.809 721.595,238.642 725.5,236C 729.241,234.262 732.408,231.762 735,228.5C 741.044,211.957 752.211,200.623 768.5,194.5 Z"/></g>
<g><path style="opacity:1" fill="#bbd9fe" d="M 1690.5,675.5 C 1690.04,672.518 1689.7,669.518 1689.5,666.5C 1762.47,564.014 1835.3,461.347 1908,358.5C 1911.19,354.127 1913.85,349.46 1916,344.5C 1917.99,336.322 1915.82,329.489 1909.5,324C 1868.32,295.246 1827.32,266.246 1786.5,237C 1772.66,225.796 1760.5,227.296 1750,241.5C 1709.34,299.657 1668.5,357.657 1627.5,415.5C 1625.62,416.341 1623.62,416.675 1621.5,416.5C 1620.45,416.649 1619.45,416.483 1618.5,416C 1666.54,348.079 1714.71,280.245 1763,212.5C 1820,252.671 1876.83,293.005 1933.5,333.5C 1853.16,448.139 1772.16,562.139 1690.5,675.5 Z"/></g>
<g><path style="opacity:1" fill="#d8eaff" d="M 1689.5,666.5 C 1674.51,581.923 1659.84,497.256 1645.5,412.5C 1639.58,413.931 1633.58,414.931 1627.5,415.5C 1668.5,357.657 1709.34,299.657 1750,241.5C 1760.5,227.296 1772.66,225.796 1786.5,237C 1827.32,266.246 1868.32,295.246 1909.5,324C 1915.82,329.489 1917.99,336.322 1916,344.5C 1913.85,349.46 1911.19,354.127 1908,358.5C 1835.3,461.347 1762.47,564.014 1689.5,666.5 Z"/></g>
<g><path style="opacity:1" fill="#ffb40a" d="M 899.5,461.5 C 899.44,460.957 899.107,460.624 898.5,460.5C 892.651,462.466 886.651,462.966 880.5,462C 843.879,453.117 814.379,433.617 792,403.5C 785.83,394.482 783.33,384.815 784.5,374.5C 787.589,370.449 791.589,367.616 796.5,366C 810.865,365.007 824.531,367.674 837.5,374C 860.402,384.367 879.902,399.2 896,418.5C 899.732,423.906 903.065,429.573 906,435.5C 908.273,442.666 907.94,449.666 905,456.5C 903.296,458.373 901.463,460.04 899.5,461.5 Z"/></g>
<g><path style="opacity:1" fill="#ffa000" d="M 801.5,371.5 C 812.96,370.616 823.96,372.449 834.5,377C 856.779,386.615 875.612,400.782 891,419.5C 896.234,426.133 899.4,433.633 900.5,442C 900.424,449.407 896.758,453.74 889.5,455C 881.354,455.991 873.354,455.324 865.5,453C 842.449,444.604 822.615,431.437 806,413.5C 799.531,406.235 794.865,397.901 792,388.5C 790.76,380.266 793.927,374.6 801.5,371.5 Z"/></g>
<g><path style="opacity:1" fill="#ffb400" d="M 805.5,373.5 C 821.74,374.413 836.74,379.246 850.5,388C 867.531,398.029 881.698,411.196 893,427.5C 897.36,434.095 898.36,441.095 896,448.5C 895.167,449.333 894.333,450.167 893.5,451C 885.508,454.331 877.508,454.331 869.5,451C 843.312,442.496 821.478,427.662 804,406.5C 800.828,402.159 798.161,397.492 796,392.5C 792.093,382.315 795.259,375.982 805.5,373.5 Z"/></g>
<g><path style="opacity:1" fill="#ffa20e" d="M 784.5,374.5 C 783.33,384.815 785.83,394.482 792,403.5C 814.379,433.617 843.879,453.117 880.5,462C 886.651,462.966 892.651,462.466 898.5,460.5C 899.107,460.624 899.44,460.957 899.5,461.5C 897.3,463.64 894.633,465.14 891.5,466C 883.034,466.95 874.701,466.283 866.5,464C 833.597,453.139 807.097,433.639 787,405.5C 781.687,397.568 779.687,388.901 781,379.5C 781.697,377.416 782.864,375.749 784.5,374.5 Z"/></g>
<g><path style="opacity:1" fill="#ff9f00" d="M 822.5,391.5 C 829.201,391.682 835.201,393.849 840.5,398C 846.167,405.667 851.833,413.333 857.5,421C 865.55,423.953 867.383,421.786 863,414.5C 860.667,412.833 858.333,411.167 856,409.5C 855.186,407.098 855.353,404.765 856.5,402.5C 865.237,406.237 871.237,412.57 874.5,421.5C 876.642,422.601 878.808,423.601 881,424.5C 881.781,425.944 881.614,427.277 880.5,428.5C 877.038,425.384 874.371,425.884 872.5,430C 866.88,432.151 861.547,431.484 856.5,428C 848.635,422.116 842.802,414.616 839,405.5C 836.48,402.982 833.48,401.315 830,400.5C 826.995,401.886 826.662,403.886 829,406.5C 831.488,408.743 834.154,410.743 837,412.5C 837.814,414.902 837.647,417.235 836.5,419.5C 828.362,415.862 822.362,410.029 818.5,402C 816.254,400.961 814.087,399.794 812,398.5C 811.333,397.167 811.333,395.833 812,394.5C 814.088,395.308 816.088,396.308 818,397.5C 818.804,394.854 820.304,392.854 822.5,391.5 Z"/></g>
<g><path style="opacity:1" fill="#bad9fe" d="M 1707.5,403.5 C 1740.42,402.188 1761.58,417.188 1771,448.5C 1774.75,484.398 1759.25,506.898 1724.5,516C 1693.14,518.284 1671.98,504.784 1661,475.5C 1655.36,437.669 1670.86,413.669 1707.5,403.5 Z"/></g>
<g><path style="opacity:1" fill="#f6fbfe" d="M 1689.5,666.5 C 1689.7,669.518 1690.04,672.518 1690.5,675.5C 1693.18,690.297 1695.84,704.964 1698.5,719.5C 1701.99,742.592 1705.99,765.592 1710.5,788.5C 1710.67,790.861 1711.01,793.194 1711.5,795.5C 1713.32,805.799 1714.99,816.132 1716.5,826.5C 1723.82,867.419 1730.82,908.419 1737.5,949.5C 1738.79,949.263 1739.79,949.596 1740.5,950.5C 1739.41,950.62 1738.75,951.287 1738.5,952.5C 1739.45,957.133 1740.11,961.799 1740.5,966.5C 1735.01,966.752 1729.68,966.085 1724.5,964.5C 1724.3,966.39 1724.96,967.89 1726.5,969C 1731.81,971.827 1737.15,974.327 1742.5,976.5C 1755.83,1052.8 1769.16,1129.14 1782.5,1205.5C 1794.27,1272.47 1805.94,1339.47 1817.5,1406.5C 1810.3,1407.86 1803.3,1409.53 1796.5,1411.5C 1549.66,1453.33 1302.99,1496 1056.5,1539.5C 1056.67,1533.49 1056.5,1527.49 1056,1521.5C 1055.5,1521 1055,1520.5 1054.5,1520C 1058.83,1519.67 1063.17,1519.33 1067.5,1519C 1068.33,1518.17 1069.17,1517.33 1070,1516.5C 1070.67,1509.83 1070.67,1503.17 1070,1496.5C 1069.5,1496 1069,1495.5 1068.5,1495C 1076.64,1493.83 1079.64,1489.17 1077.5,1481C 1077.33,1477.83 1077.17,1474.67 1077,1471.5C 1076.5,1471 1076,1470.5 1075.5,1470C 1068.61,1468.74 1061.61,1468.07 1054.5,1468C 1055.33,1467.17 1056.17,1466.33 1057,1465.5C 1057.67,1459.17 1057.67,1452.83 1057,1446.5C 1055.83,1445.33 1054.67,1444.17 1053.5,1443C 1054.67,1442.5 1055.5,1441.67 1056,1440.5C 1056.82,1433.65 1056.65,1426.99 1055.5,1420.5C 1058.83,1419.83 1062.17,1419.17 1065.5,1418.5C 1067.39,1418.7 1068.89,1418.04 1070,1416.5C 1070.67,1409.83 1070.67,1403.17 1070,1396.5C 1069.17,1395.67 1068.33,1394.83 1067.5,1394C 1074.83,1393.67 1082.17,1393.33 1089.5,1393C 1090.42,1392.63 1091.25,1392.13 1092,1391.5C 1092.67,1384.5 1092.67,1377.5 1092,1370.5C 1091.5,1370 1091,1369.5 1090.5,1369C 1079.17,1368.5 1067.84,1368.33 1056.5,1368.5C 1055.21,1368.74 1054.21,1368.4 1053.5,1367.5C 1055.41,1367.43 1056.58,1366.43 1057,1364.5C 1057.67,1358.5 1057.67,1352.5 1057,1346.5C 1055.96,1345.63 1055.12,1344.63 1054.5,1343.5C 1055.5,1343.5 1056.5,1343.5 1057.5,1343.5C 1058.5,1343.5 1059.5,1343.5 1060.5,1343.5C 1065.18,1343.67 1069.85,1343.5 1074.5,1343C 1075.33,1342.17 1076.17,1341.33 1077,1340.5C 1077.67,1334.17 1077.67,1327.83 1077,1321.5C 1076.17,1320.67 1075.33,1319.83 1074.5,1319C 1084.18,1319.48 1087.85,1314.98 1085.5,1305.5C 1085.33,1302.17 1085.17,1298.83 1085,1295.5C 1084.5,1295 1084,1294.5 1083.5,1294C 1076.62,1292.58 1069.62,1292.08 1062.5,1292.5C 1061.5,1292.5 1060.5,1292.5 1059.5,1292.5C 1057.17,1292.5 1054.83,1292.5 1052.5,1292.5C 1051.5,1292.5 1050.5,1292.5 1049.5,1292.5C 1047.5,1292.5 1045.5,1292.5 1043.5,1292.5C 1043.37,1258.95 1033.21,1228.95 1013,1202.5C 1003.41,1191.73 992.239,1183.06 979.5,1176.5C 978.824,1175.4 978.158,1174.4 977.5,1173.5C 977.5,1172.17 977.5,1170.83 977.5,1169.5C 985.521,1164.22 992.687,1157.89 999,1150.5C 998.573,1147.88 997.073,1145.88 994.5,1144.5C 992.471,1142.14 990.471,1139.81 988.5,1137.5C 987.657,1135.83 986.324,1134.66 984.5,1134C 977.513,1134 970.513,1134.16 963.5,1134.5C 959.568,1131.91 955.901,1128.91 952.5,1125.5C 949.4,1122.79 945.733,1121.46 941.5,1121.5C 941.672,1120.51 941.338,1119.84 940.5,1119.5C 938.446,1105.33 936.113,1091.33 933.5,1077.5C 931.383,1063.46 929.049,1049.46 926.5,1035.5C 925.698,1030 924.698,1024.67 923.5,1019.5C 916.701,977.703 909.368,936.037 901.5,894.5C 882.341,780.215 862.674,666.048 842.5,552C 1086.8,509.283 1331.14,466.783 1575.5,424.5C 1590.99,421.986 1606.33,419.32 1621.5,416.5C 1623.62,416.675 1625.62,416.341 1627.5,415.5C 1633.58,414.931 1639.58,413.931 1645.5,412.5C 1659.84,497.256 1674.51,581.923 1689.5,666.5 Z"/></g>
<g><path style="opacity:1" fill="#c9e8ff" d="M 1716.5,826.5 C 1714.99,816.132 1713.32,805.799 1711.5,795.5C 1815.15,749.345 1918.81,703.179 2022.5,657C 2024.87,656.152 2026.87,654.819 2028.5,653C 2000.67,589.687 1972.34,526.687 1943.5,464C 1940.76,464.019 1938.09,464.686 1935.5,466C 1907.35,478.991 1879.02,491.491 1850.5,503.5C 1861.46,486.892 1873.12,470.892 1885.5,455.5C 1907.35,445.937 1929.18,436.271 1951,426.5C 1988.33,507.841 2025.17,589.508 2061.5,671.5C 1946.93,723.949 1831.93,775.616 1716.5,826.5 Z"/></g>
<g><path style="opacity:1" fill="#bad9fe" d="M 1711.5,795.5 C 1711.01,793.194 1710.67,790.861 1710.5,788.5C 1809.05,745.228 1907.38,701.394 2005.5,657C 2012.52,651.098 2015.02,643.598 2013,634.5C 1990.92,584.684 1968.59,535.018 1946,485.5C 1941.1,479.866 1934.93,477.366 1927.5,478C 1899.02,489.822 1870.86,502.322 1843,515.5C 1842.6,515.272 1842.43,514.938 1842.5,514.5C 1845.17,510.833 1847.83,507.167 1850.5,503.5C 1879.02,491.491 1907.35,478.991 1935.5,466C 1938.09,464.686 1940.76,464.019 1943.5,464C 1972.34,526.687 2000.67,589.687 2028.5,653C 2026.87,654.819 2024.87,656.152 2022.5,657C 1918.81,703.179 1815.15,749.345 1711.5,795.5 Z"/></g>
<g><path style="opacity:1" fill="#c8e7ff" d="M 1710.5,788.5 C 1705.99,765.592 1701.99,742.592 1698.5,719.5C 1707.09,705.305 1716.43,691.638 1726.5,678.5C 1742.15,703.559 1764.49,712.726 1793.5,706C 1823.46,693.929 1836.29,671.763 1832,639.5C 1825.17,615.168 1809.34,600.835 1784.5,596.5C 1803.85,569.129 1823.18,541.796 1842.5,514.5C 1842.43,514.938 1842.6,515.272 1843,515.5C 1870.86,502.322 1899.02,489.822 1927.5,478C 1934.93,477.366 1941.1,479.866 1946,485.5C 1968.59,535.018 1990.92,584.684 2013,634.5C 2015.02,643.598 2012.52,651.098 2005.5,657C 1907.38,701.394 1809.05,745.228 1710.5,788.5 Z"/></g>
<g><path style="opacity:1" fill="#0d3865" d="M 1543.5,538.5 C 1554.13,537.985 1562.97,541.652 1570,549.5C 1575.3,557.372 1578.47,566.039 1579.5,575.5C 1564.53,577.925 1549.53,580.258 1534.5,582.5C 1535.43,590.593 1539.93,595.26 1548,596.5C 1555.43,596.218 1559.93,592.551 1561.5,585.5C 1567.47,584.615 1573.47,583.949 1579.5,583.5C 1578.53,597.311 1571.2,605.811 1557.5,609C 1535.46,614.57 1521.63,606.403 1516,584.5C 1509.67,559.451 1518.84,544.118 1543.5,538.5 Z"/></g>
<g><path style="opacity:1" fill="#0c3865" d="M 1491.5,549.5 C 1493.83,549.5 1496.17,549.5 1498.5,549.5C 1501.84,570.874 1505.51,592.208 1509.5,613.5C 1509.18,614.647 1508.52,615.481 1507.5,616C 1502.14,616.727 1496.8,617.561 1491.5,618.5C 1488.05,596.147 1484.39,573.814 1480.5,551.5C 1484.39,551.354 1488.05,550.687 1491.5,549.5 Z"/></g>
<g><path style="opacity:1" fill="#f0f6fa" d="M 1541.5,553.5 C 1551.52,552.326 1557.18,556.659 1558.5,566.5C 1549.94,568.474 1541.27,569.807 1532.5,570.5C 1531.06,562.369 1534.06,556.702 1541.5,553.5 Z"/></g>
<g><path style="opacity:1" fill="#0b3764" d="M 1429.5,560.5 C 1430.5,560.414 1431.33,560.748 1432,561.5C 1432.85,568.568 1434.01,575.568 1435.5,582.5C 1436,582.833 1436.5,583.167 1437,583.5C 1447.76,580.595 1458.59,580.095 1469.5,582C 1481.89,590.201 1484.73,601.034 1478,614.5C 1475.41,617.762 1472.24,620.262 1468.5,622C 1454.28,625.148 1439.94,627.648 1425.5,629.5C 1422.07,608.299 1418.4,587.132 1414.5,566C 1414.75,564.674 1415.42,563.674 1416.5,563C 1421.05,562.571 1425.38,561.738 1429.5,560.5 Z"/></g>
<g><path style="opacity:1" fill="#0c3865" d="M 1394.5,566.5 C 1395.83,566.5 1397.17,566.5 1398.5,566.5C 1401.89,588.877 1405.55,611.21 1409.5,633.5C 1403.49,634.073 1397.49,634.74 1391.5,635.5C 1390.47,626.049 1388.8,616.715 1386.5,607.5C 1378.51,608.832 1370.51,610.166 1362.5,611.5C 1363.46,620.548 1364.79,629.548 1366.5,638.5C 1366.18,639.647 1365.52,640.481 1364.5,641C 1359.76,641.512 1355.1,642.345 1350.5,643.5C 1345.2,621.414 1341.2,599.081 1338.5,576.5C 1344.22,575.778 1349.89,574.778 1355.5,573.5C 1356.22,581.704 1357.88,589.704 1360.5,597.5C 1368.46,595.951 1376.46,594.618 1384.5,593.5C 1383.17,585.167 1381.83,576.833 1380.5,568.5C 1385.39,568.468 1390.06,567.801 1394.5,566.5 Z"/></g>
<g><path style="opacity:1" fill="#0c3865" d="M 1322.5,578.5 C 1324.29,578.215 1325.95,578.548 1327.5,579.5C 1321.56,590.482 1315.89,601.648 1310.5,613C 1320.5,623.667 1330.5,634.333 1340.5,645C 1333.17,646.447 1325.83,647.447 1318.5,648C 1311.17,640 1303.83,632 1296.5,624C 1295.55,623.517 1294.55,623.351 1293.5,623.5C 1294.83,633.167 1296.17,642.833 1297.5,652.5C 1292.17,653.497 1286.84,654.497 1281.5,655.5C 1279.07,646.258 1277.07,636.924 1275.5,627.5C 1274.02,627.238 1272.69,627.571 1271.5,628.5C 1267.17,638.5 1262.83,648.5 1258.5,658.5C 1251.89,660.111 1245.22,661.444 1238.5,662.5C 1243.47,649.06 1249.14,635.893 1255.5,623C 1246.63,613.958 1237.63,605.125 1228.5,596.5C 1234.97,594.171 1241.64,593.005 1248.5,593C 1255.86,600.03 1262.86,607.364 1269.5,615C 1270.79,615.49 1272.13,615.657 1273.5,615.5C 1271.75,606.572 1270.41,597.572 1269.5,588.5C 1275.11,587.222 1280.78,586.222 1286.5,585.5C 1287.83,594.171 1289.17,602.837 1290.5,611.5C 1291.98,611.762 1293.31,611.429 1294.5,610.5C 1298.83,601.167 1303.17,591.833 1307.5,582.5C 1312.62,581.151 1317.62,579.817 1322.5,578.5 Z"/></g>
<g><path style="opacity:1" fill="#f0f6fa" d="M 1447.5,594.5 C 1458.7,592.213 1463.54,596.547 1462,607.5C 1460.68,609.487 1458.85,610.654 1456.5,611C 1451.26,612.478 1445.92,613.312 1440.5,613.5C 1439.35,607.898 1438.68,602.231 1438.5,596.5C 1441.83,596.785 1444.83,596.118 1447.5,594.5 Z"/></g>
<g><path style="opacity:1" fill="#bad9fe" d="M 1784.5,596.5 C 1809.34,600.835 1825.17,615.168 1832,639.5C 1836.29,671.763 1823.46,693.929 1793.5,706C 1764.49,712.726 1742.15,703.559 1726.5,678.5C 1745.83,651.167 1765.17,623.833 1784.5,596.5 Z"/></g>
<g><path style="opacity:1" fill="#0c3865" d="M 1189.5,599.5 C 1207.55,597.27 1219.72,604.603 1226,621.5C 1227.17,625.833 1228.33,630.167 1229.5,634.5C 1229.29,635.086 1228.96,635.586 1228.5,636C 1214.44,638.056 1200.44,640.389 1186.5,643C 1184.34,647.144 1185.34,650.811 1189.5,654C 1196.87,657.813 1203.7,656.98 1210,651.5C 1211.01,649.975 1211.51,648.308 1211.5,646.5C 1217.89,645.824 1224.22,644.824 1230.5,643.5C 1228.82,658.017 1220.82,666.85 1206.5,670C 1182.83,674.363 1169,664.53 1165,640.5C 1161.09,619.309 1169.26,605.642 1189.5,599.5 Z"/></g>
<g><path style="opacity:1" fill="#ffaf76" d="M 511.5,631.5 C 510.187,626.871 507.854,622.871 504.5,619.5C 505.31,615.224 505.977,610.891 506.5,606.5C 508.911,606.137 510.411,607.137 511,609.5C 512.214,607.951 513.714,606.785 515.5,606C 523.257,603.04 531.257,602.04 539.5,603C 542.017,605.194 541.684,607.194 538.5,609C 533.714,612.118 529.214,615.618 525,619.5C 522.32,625.442 517.82,629.442 511.5,631.5 Z"/></g>
<g><path style="opacity:1" fill="#ffaf76" d="M 649.5,614.5 C 647.928,619.203 646.594,623.87 645.5,628.5C 642.327,627.83 639.327,626.664 636.5,625C 630.788,618.144 623.455,614.477 614.5,614C 612.552,612.561 611.219,610.728 610.5,608.5C 610.818,607.353 611.484,606.519 612.5,606C 615.753,604.964 619.086,604.297 622.5,604C 629.735,602.484 636.402,603.65 642.5,607.5C 643.167,606.5 643.833,605.5 644.5,604.5C 646.564,607.727 648.23,611.06 649.5,614.5 Z"/></g>
<g><path style="opacity:1" fill="#0c3865" d="M 1143.5,609.5 C 1145.17,609.5 1146.83,609.5 1148.5,609.5C 1152,631.853 1155.67,654.187 1159.5,676.5C 1153.54,677.494 1147.54,678.161 1141.5,678.5C 1140.17,669.518 1138.84,660.518 1137.5,651.5C 1129.15,652.407 1120.82,653.407 1112.5,654.5C 1113.92,664.156 1115.25,673.822 1116.5,683.5C 1111.6,684.123 1106.76,685.123 1102,686.5C 1100.67,686.245 1099.67,685.578 1099,684.5C 1095.28,662.856 1091.78,641.189 1088.5,619.5C 1094.15,618.672 1099.81,618.006 1105.5,617.5C 1106.83,625.168 1108.17,632.835 1109.5,640.5C 1117.93,639.707 1126.26,638.373 1134.5,636.5C 1133.6,628.416 1132.26,620.416 1130.5,612.5C 1135.1,612.138 1139.44,611.138 1143.5,609.5 Z"/></g>
<g><path style="opacity:1" fill="#0b3764" d="M 990.5,612.5 C 992.5,612.5 994.5,612.5 996.5,612.5C 1000.5,636.527 1004.67,660.527 1009,684.5C 1011.8,685.795 1014.63,685.795 1017.5,684.5C 1019.44,695.002 1021.44,705.502 1023.5,716C 1023.32,717.658 1022.66,718.991 1021.5,720C 1016.92,720.652 1012.42,721.485 1008,722.5C 1006.42,716.239 1005.25,709.906 1004.5,703.5C 985.875,706.685 967.208,709.685 948.5,712.5C 949.167,719.167 949.833,725.833 950.5,732.5C 945.196,733.384 939.863,734.051 934.5,734.5C 933.157,724.11 931.491,713.777 929.5,703.5C 929.57,702.228 929.903,701.062 930.5,700C 932.433,699.749 934.266,699.249 936,698.5C 939.328,683.684 940.328,668.684 939,653.5C 937.586,643.187 936.419,632.854 935.5,622.5C 953.993,619.339 972.326,616.006 990.5,612.5 Z"/></g>
<g><path style="opacity:1" fill="#fefefe" d="M 649.5,614.5 C 684.663,622.72 716.997,637.22 746.5,658C 757.127,665.968 760.627,676.468 757,689.5C 752.241,748.672 728.908,799.005 687,840.5C 686.749,864.174 686.249,887.841 685.5,911.5C 688.444,939.826 691.277,968.159 694,996.5C 694.667,1009.83 694.667,1023.17 694,1036.5C 693.476,1041.59 692.476,1046.59 691,1051.5C 688.92,1057.41 685.087,1061.41 679.5,1063.5C 669.405,1066.24 659.405,1068.91 649.5,1071.5C 622.858,1077.69 595.858,1080.19 568.5,1079C 562.123,1078.4 555.789,1077.56 549.5,1076.5C 548.791,1075.6 547.791,1075.26 546.5,1075.5C 554.656,1024.39 556.49,973.052 552,921.5C 549.546,909.258 544.879,897.925 538,887.5C 528.771,873.439 517.937,860.773 505.5,849.5C 500.021,844.864 494.354,840.364 488.5,836C 449.973,797.465 423.973,751.632 410.5,698.5C 411.232,695.803 412.066,693.136 413,690.5C 420.708,678.455 430.208,667.955 441.5,659C 460.082,644.429 479.749,631.429 500.5,620C 501.793,619.51 503.127,619.343 504.5,619.5C 507.854,622.871 510.187,626.871 511.5,631.5C 511.509,633.308 511.009,634.975 510,636.5C 493.5,657.667 477,678.833 460.5,700C 469.364,708.53 477.864,717.363 486,726.5C 495.116,738.616 505.283,749.783 516.5,760C 530.637,760.517 544.637,762.184 558.5,765C 562.11,765.523 565.11,767.023 567.5,769.5C 579.253,781.725 593.253,790.558 609.5,796C 614.5,796.667 619.5,796.667 624.5,796C 625.833,794.333 625.833,792.667 624.5,791C 603.735,789.11 585.068,781.944 568.5,769.5C 567.064,768.571 565.731,767.405 564.5,766C 564.728,765.601 565.062,765.435 565.5,765.5C 580.25,773.514 595.917,776.347 612.5,774C 616.397,772.981 620.064,771.481 623.5,769.5C 637.357,763.285 651.69,758.452 666.5,755C 669.361,752.106 671.861,748.939 674,745.5C 684.574,724.675 696.407,704.675 709.5,685.5C 689.301,667.135 668.634,649.302 647.5,632C 646.177,631.184 645.511,630.017 645.5,628.5C 646.594,623.87 647.928,619.203 649.5,614.5 Z"/></g>
<g><path style="opacity:1" fill="#eff5fa" d="M 1190.5,614.5 C 1201.03,612.71 1207.03,617.043 1208.5,627.5C 1199.5,628.833 1190.5,630.167 1181.5,631.5C 1180.71,623.672 1183.71,618.006 1190.5,614.5 Z"/></g>
<g><path style="opacity:1" fill="#1e4f9b" d="M 624.5,662.5 C 622.023,664.241 619.356,665.741 616.5,667C 609.484,666.828 602.484,666.494 595.5,666C 591.212,668.292 588.378,671.792 587,676.5C 586.145,682.205 585.145,687.871 584,693.5C 578.667,694.167 573.333,694.833 568,695.5C 567.333,698.167 567.333,700.833 568,703.5C 569.954,708.229 571.454,713.062 572.5,718C 572.626,722.13 571.293,725.63 568.5,728.5C 563.584,728.71 559.251,727.21 555.5,724C 544.101,713.611 534.601,701.778 527,688.5C 521.294,674.68 522.627,661.68 531,649.5C 551.048,630.374 574.881,621.541 602.5,623C 613.086,624.879 621.253,630.379 627,639.5C 630.783,647.669 629.95,655.336 624.5,662.5 Z"/></g>
<g><path style="opacity:1" fill="#0d3865" d="M 1046.5,624.5 C 1060.87,623.264 1071.37,628.931 1078,641.5C 1080.96,647.87 1082.79,654.537 1083.5,661.5C 1068.44,663.424 1053.44,665.758 1038.5,668.5C 1041.26,680.724 1048.6,684.558 1060.5,680C 1063.27,677.901 1065.27,675.234 1066.5,672C 1072.45,670.51 1078.45,669.343 1084.5,668.5C 1083.14,682.696 1075.48,691.529 1061.5,695C 1039.3,700.148 1025.46,691.648 1020,669.5C 1014.05,645.362 1022.88,630.362 1046.5,624.5 Z"/></g>
<g><path style="opacity:1" fill="#f2f8fc" d="M 973.5,631.5 C 975.833,631.5 978.167,631.5 980.5,631.5C 983.818,650.774 986.818,670.107 989.5,689.5C 978.166,691.5 966.832,693.5 955.5,695.5C 958.166,675.143 957.833,654.809 954.5,634.5C 961.064,634.136 967.397,633.136 973.5,631.5 Z"/></g>
<g><path style="opacity:1" fill="#f0f6fb" d="M 1045.5,639.5 C 1054.96,638.297 1060.96,642.297 1063.5,651.5C 1054.68,654.136 1045.68,655.803 1036.5,656.5C 1035.06,648.369 1038.06,642.702 1045.5,639.5 Z"/></g>
<g><path style="opacity:1" fill="#feae73" d="M 624.5,662.5 C 632.627,682.262 636.127,702.928 635,724.5C 634.22,727.512 633.053,730.345 631.5,733C 627.734,734.559 624.068,736.059 620.5,737.5C 613.051,738.622 605.551,739.289 598,739.5C 591.261,739.711 584.761,738.878 578.5,737C 589.344,746.506 601.844,752.672 616,755.5C 618.295,755.453 620.129,754.787 621.5,753.5C 622.806,758.616 623.473,763.949 623.5,769.5C 620.064,771.481 616.397,772.981 612.5,774C 595.917,776.347 580.25,773.514 565.5,765.5C 568.175,753.34 569.175,741.007 568.5,728.5C 571.293,725.63 572.626,722.13 572.5,718C 571.454,713.062 569.954,708.229 568,703.5C 567.333,700.833 567.333,698.167 568,695.5C 573.333,694.833 578.667,694.167 584,693.5C 585.145,687.871 586.145,682.205 587,676.5C 588.378,671.792 591.212,668.292 595.5,666C 602.484,666.494 609.484,666.828 616.5,667C 619.356,665.741 622.023,664.241 624.5,662.5 Z"/></g>
<g><path style="opacity:1" fill="#0d3865" d="M 1492.5,703.5 C 1495.45,703.223 1498.28,703.556 1501,704.5C 1504.62,726.221 1508.45,747.888 1512.5,769.5C 1506.5,770.5 1500.5,771.5 1494.5,772.5C 1490.75,750.177 1487.08,727.844 1483.5,705.5C 1486.69,705.142 1489.69,704.475 1492.5,703.5 Z"/></g>
<g><path style="opacity:1" fill="#0b3864" d="M 1429.5,714.5 C 1431.17,714.5 1432.83,714.5 1434.5,714.5C 1435.6,722.071 1436.94,729.571 1438.5,737C 1445.57,735.792 1452.73,734.958 1460,734.5C 1475.57,733.572 1483.74,740.905 1484.5,756.5C 1483.67,767.835 1477.67,774.669 1466.5,777C 1455.01,779.26 1443.51,781.427 1432,783.5C 1430.34,783.325 1429.01,782.658 1428,781.5C 1424.17,759.873 1420.67,738.207 1417.5,716.5C 1421.79,716.802 1425.79,716.136 1429.5,714.5 Z"/></g>
<g><path style="opacity:1" fill="#0d3865" d="M 1402.5,719.5 C 1404.45,719.227 1405.95,719.893 1407,721.5C 1407.64,725.491 1408.14,729.491 1408.5,733.5C 1401.9,734.871 1395.24,735.871 1388.5,736.5C 1391.82,754.11 1394.82,771.776 1397.5,789.5C 1391.42,790.07 1385.42,791.07 1379.5,792.5C 1377.48,775.053 1374.81,757.72 1371.5,740.5C 1364.38,740.742 1357.38,741.742 1350.5,743.5C 1350.16,738.777 1349.49,734.11 1348.5,729.5C 1366.63,726.127 1384.63,722.794 1402.5,719.5 Z"/></g>
<g><path style="opacity:1" fill="#0d3965" d="M 1312.5,732.5 C 1319.34,732.039 1326.01,732.872 1332.5,735C 1337.55,737.72 1340.72,741.887 1342,747.5C 1343.89,762.77 1346.89,777.77 1351,792.5C 1353.56,793.219 1354.72,794.886 1354.5,797.5C 1347.82,798.241 1341.16,798.741 1334.5,799C 1333.67,797.184 1332.84,795.351 1332,793.5C 1323.14,805.674 1311.64,809.174 1297.5,804C 1288.22,795.799 1286.05,785.966 1291,774.5C 1292.5,771.667 1294.67,769.5 1297.5,768C 1306.01,764.274 1314.68,760.941 1323.5,758C 1325.51,753.659 1324.51,750.325 1320.5,748C 1314.73,746.71 1309.56,747.877 1305,751.5C 1303.75,754.014 1303.25,756.68 1303.5,759.5C 1297.47,759.949 1291.47,760.615 1285.5,761.5C 1285.13,751.397 1289.13,743.564 1297.5,738C 1302.46,735.726 1307.46,733.892 1312.5,732.5 Z"/></g>
<g><path style="opacity:1" fill="#fb9251" d="M 620.5,737.5 C 621.194,742.805 621.528,748.138 621.5,753.5C 620.129,754.787 618.295,755.453 616,755.5C 601.844,752.672 589.344,746.506 578.5,737C 584.761,738.878 591.261,739.711 598,739.5C 605.551,739.289 613.051,738.622 620.5,737.5 Z"/></g>
<g><path style="opacity:1" fill="#083663" d="M 2160.5,944.5 C 2140.96,924.125 2120.29,904.959 2098.5,887C 2079.4,875.559 2058.74,869.059 2036.5,867.5C 2034.68,855.914 2034.18,844.247 2035,832.5C 2038.59,826.347 2040.42,819.68 2040.5,812.5C 2026.4,810.208 2015.9,802.875 2009,790.5C 2005.01,782.866 2001.35,775.199 1998,767.5C 1988.24,771.315 1981.91,778.315 1979,788.5C 1975.82,803.788 1975.82,819.121 1979,834.5C 1980.18,838.363 1982.01,841.863 1984.5,845C 1987.39,846.149 1990.39,846.649 1993.5,846.5C 1993.5,848.5 1993.5,850.5 1993.5,852.5C 1993.5,854.5 1993.5,856.5 1993.5,858.5C 1992.59,861.728 1992.25,865.061 1992.5,868.5C 1979.4,870.187 1966.73,873.52 1954.5,878.5C 1954.34,876.801 1954.51,875.134 1955,873.5C 1957.33,869.5 1959.67,865.5 1962,861.5C 1962.17,860.333 1962.33,859.167 1962.5,858C 1959.75,850.326 1956.58,842.826 1953,835.5C 1949.43,819.343 1950.09,803.343 1955,787.5C 1969.38,745.89 1997.88,731.057 2040.5,743C 2057.01,747.513 2068.51,757.679 2075,773.5C 2078.12,782.398 2081.78,791.064 2086,799.5C 2089.79,805.148 2094.95,808.982 2101.5,811C 2108.82,812.073 2116.16,813.073 2123.5,814C 2143.18,818.864 2148.85,830.697 2140.5,849.5C 2141.77,854.611 2144.77,858.444 2149.5,861C 2157.33,865.08 2165,869.413 2172.5,874C 2181.11,880.717 2185.94,889.551 2187,900.5C 2190.08,922.718 2181.25,937.384 2160.5,944.5 Z"/></g>
<g><path style="opacity:1" fill="#0c3865" d="M 1263.5,743.5 C 1264.83,743.5 1266.17,743.5 1267.5,743.5C 1270.89,765.877 1274.55,788.21 1278.5,810.5C 1272.46,810.844 1266.46,811.511 1260.5,812.5C 1258.15,795.116 1255.49,777.782 1252.5,760.5C 1245.9,761.871 1239.24,762.871 1232.5,763.5C 1233.77,774.308 1234.77,785.142 1235.5,796C 1237.56,814.774 1229.22,823.607 1210.5,822.5C 1209.83,817.5 1209.17,812.5 1208.5,807.5C 1213.49,808.651 1216.99,806.984 1219,802.5C 1218.63,785.833 1216.8,769.333 1213.5,753C 1230.32,749.922 1246.99,746.755 1263.5,743.5 Z"/></g>
<g><path style="opacity:1" fill="#f0f6fa" d="M 1450.5,748.5 C 1453.85,748.335 1457.18,748.502 1460.5,749C 1465.07,751.541 1466.57,755.375 1465,760.5C 1463.48,762.348 1461.65,763.848 1459.5,765C 1454.81,765.726 1450.15,766.559 1445.5,767.5C 1444.83,767.167 1444.17,766.833 1443.5,766.5C 1442.28,761.208 1441.28,755.875 1440.5,750.5C 1444.01,750.101 1447.34,749.434 1450.5,748.5 Z"/></g>
<g><path style="opacity:1" fill="#0c3865" d="M 1182.5,757.5 C 1184.17,757.5 1185.83,757.5 1187.5,757.5C 1191.49,779.769 1195.16,802.102 1198.5,824.5C 1193.27,824.652 1188.1,825.319 1183,826.5C 1182.5,826.167 1182,825.833 1181.5,825.5C 1178.37,808.528 1175.37,791.528 1172.5,774.5C 1164.85,775.664 1157.18,776.831 1149.5,778C 1148.57,778.388 1147.91,779.055 1147.5,780C 1150.55,797.161 1153.55,814.328 1156.5,831.5C 1150.53,832.447 1144.53,833.114 1138.5,833.5C 1134.85,812.198 1131.18,790.865 1127.5,769.5C 1127.83,768.833 1128.17,768.167 1128.5,767.5C 1146.64,764.247 1164.64,760.914 1182.5,757.5 Z"/></g>
<g><path style="opacity:1" fill="#fcac72" d="M 2036.5,867.5 C 2036.69,872.436 2035.02,876.602 2031.5,880C 2022.25,884.173 2012.58,885.507 2002.5,884C 1996.51,880.521 1993.18,875.355 1992.5,868.5C 1992.25,865.061 1992.59,861.728 1993.5,858.5C 2008.5,858.665 2020.17,852.498 2028.5,840C 2017.69,844.194 2006.36,846.361 1994.5,846.5C 1994.79,848.735 1994.46,850.735 1993.5,852.5C 1993.5,850.5 1993.5,848.5 1993.5,846.5C 1990.39,846.649 1987.39,846.149 1984.5,845C 1982.01,841.863 1980.18,838.363 1979,834.5C 1975.82,819.121 1975.82,803.788 1979,788.5C 1981.91,778.315 1988.24,771.315 1998,767.5C 2001.35,775.199 2005.01,782.866 2009,790.5C 2015.9,802.875 2026.4,810.208 2040.5,812.5C 2040.42,819.68 2038.59,826.347 2035,832.5C 2034.18,844.247 2034.68,855.914 2036.5,867.5 Z"/></g>
<g><path style="opacity:1" fill="#f0f6fa" d="M 1326.5,768.5 C 1329.32,774.818 1329.16,781.151 1326,787.5C 1321.38,792.021 1315.88,793.521 1309.5,792C 1303.53,785.178 1304.53,779.511 1312.5,775C 1317.65,773.588 1322.32,771.422 1326.5,768.5 Z"/></g>
<g><path style="opacity:1" fill="#0c3865" d="M 1105.5,770.5 C 1107.5,770.5 1109.5,770.5 1111.5,770.5C 1115.01,792.856 1118.67,815.189 1122.5,837.5C 1116.49,838.073 1110.49,838.74 1104.5,839.5C 1101.7,818.03 1098.03,796.697 1093.5,775.5C 1093.61,774.558 1093.94,773.725 1094.5,773C 1098.39,772.581 1102.06,771.748 1105.5,770.5 Z"/></g>
<g><path style="opacity:1" fill="#c3d8f2" d="M 567.5,769.5 C 567.833,769.5 568.167,769.5 568.5,769.5C 585.068,781.944 603.735,789.11 624.5,791C 625.833,792.667 625.833,794.333 624.5,796C 619.5,796.667 614.5,796.667 609.5,796C 593.253,790.558 579.253,781.725 567.5,769.5 Z"/></g>
<g><path style="opacity:1" fill="#0c3865" d="M 1042.5,781.5 C 1043.75,781.577 1044.58,782.244 1045,783.5C 1046.03,790.539 1047.2,797.539 1048.5,804.5C 1056.3,803.34 1064.13,802.34 1072,801.5C 1088.47,802.979 1095.81,811.979 1094,828.5C 1092.7,835.798 1088.54,840.631 1081.5,843C 1067.28,846.342 1052.95,849.175 1038.5,851.5C 1034.7,829.189 1031.04,806.855 1027.5,784.5C 1032.77,784.237 1037.77,783.237 1042.5,781.5 Z"/></g>
<g><path style="opacity:1" fill="#0a3764" d="M 986.5,791.5 C 991.844,791.334 997.177,791.501 1002.5,792C 1012.16,795.483 1015.99,802.316 1014,812.5C 1013.12,815.215 1011.62,817.549 1009.5,819.5C 1019.7,823.91 1023.54,831.576 1021,842.5C 1019.26,849.237 1015.1,853.737 1008.5,856C 994.175,858.898 979.842,861.732 965.5,864.5C 960.944,842.273 956.944,819.939 953.5,797.5C 964.639,795.59 975.639,793.59 986.5,791.5 Z"/></g>
<g><path style="opacity:1" fill="#eef4f9" d="M 984.5,804.5 C 993.823,802.658 997.656,806.325 996,815.5C 989.237,818.685 982.07,820.351 974.5,820.5C 974.05,815.798 973.383,811.132 972.5,806.5C 976.733,806.461 980.733,805.795 984.5,804.5 Z"/></g>
<g><path style="opacity:1" fill="#eff5fa" d="M 1056.5,816.5 C 1062.29,816.096 1067.96,816.596 1073.5,818C 1077.69,825.58 1075.69,830.58 1067.5,833C 1062.76,833.519 1058.1,834.352 1053.5,835.5C 1052.5,829.503 1051.5,823.503 1050.5,817.5C 1052.74,817.795 1054.74,817.461 1056.5,816.5 Z"/></g>
<g><path style="opacity:1" fill="#aac5ff" d="M 1634.5,819.5 C 1641.33,818.828 1644.16,821.828 1643,828.5C 1642.5,830.333 1641.33,831.5 1639.5,832C 1608.8,837.147 1578.13,842.481 1547.5,848C 1539.19,850.663 1535.36,847.83 1536,839.5C 1536.83,838.667 1537.67,837.833 1538.5,837C 1570.68,831.385 1602.68,825.551 1634.5,819.5 Z"/></g>
<g><path style="opacity:1" fill="#eef4f9" d="M 990.5,829.5 C 1001.06,828.215 1004.89,832.548 1002,842.5C 995.121,846.569 987.621,848.569 979.5,848.5C 978.704,843.184 978.037,837.851 977.5,832.5C 981.985,831.66 986.319,830.66 990.5,829.5 Z"/></g>
<g><path style="opacity:1" fill="#f6904f" d="M 1993.5,858.5 C 1993.5,856.5 1993.5,854.5 1993.5,852.5C 1994.46,850.735 1994.79,848.735 1994.5,846.5C 2006.36,846.361 2017.69,844.194 2028.5,840C 2020.17,852.498 2008.5,858.665 1993.5,858.5 Z"/></g>
<g><path style="opacity:1" fill="#aac5ff" d="M 1491.5,844.5 C 1494.52,844.335 1497.52,844.502 1500.5,845C 1504.49,848.62 1504.49,852.287 1500.5,856C 1447.83,865.12 1395.16,874.287 1342.5,883.5C 1334.57,881.044 1333.57,876.877 1339.5,871C 1390.41,862.683 1441.07,853.85 1491.5,844.5 Z"/></g>
<g><path style="opacity:1" fill="#afcbf2" d="M 505.5,849.5 C 517.937,860.773 528.771,873.439 538,887.5C 544.879,897.925 549.546,909.258 552,921.5C 556.49,973.052 554.656,1024.39 546.5,1075.5C 547.791,1075.26 548.791,1075.6 549.5,1076.5C 538.832,1074.5 528.166,1072.5 517.5,1070.5C 514.312,1068.31 511.145,1065.98 508,1063.5C 506.561,1061.73 505.561,1059.73 505,1057.5C 507.348,990.537 508.014,923.537 507,856.5C 506.443,854.385 505.609,852.385 504.5,850.5C 504.624,849.893 504.957,849.56 505.5,849.5 Z"/></g>
<g><path style="opacity:1" fill="#aac5ff" d="M 1639.5,862.5 C 1647.32,860.833 1650.82,863.833 1650,871.5C 1649.5,873.333 1648.33,874.5 1646.5,875C 1523.18,896.332 1399.84,917.665 1276.5,939C 1268.17,941.003 1264.67,937.836 1266,929.5C 1266.9,928.299 1268.07,927.465 1269.5,927C 1392.99,905.654 1516.32,884.154 1639.5,862.5 Z"/></g>
<g><path style="opacity:1" fill="#02974b" d="M 2036.5,867.5 C 2058.74,869.059 2079.4,875.559 2098.5,887C 2120.29,904.959 2140.96,924.125 2160.5,944.5C 2167.29,952.809 2173.12,961.809 2178,971.5C 2180.29,977.324 2181.96,983.324 2183,989.5C 2186.68,1026.38 2185.51,1063.04 2179.5,1099.5C 2173.41,1099.79 2167.41,1099.46 2161.5,1098.5C 2160.5,1098.59 2159.67,1098.25 2159,1097.5C 2153.32,1062.04 2144.65,1027.37 2133,993.5C 2120.08,981.959 2105.91,972.292 2090.5,964.5C 2085.15,957.494 2078.15,953.661 2069.5,953C 2067.95,954.214 2066.78,955.714 2066,957.5C 2065.33,961.833 2065.33,966.167 2066,970.5C 2069.14,980.285 2070.14,990.285 2069,1000.5C 2064.31,1008.24 2062.31,1016.57 2063,1025.5C 2063.47,1026.93 2064.3,1028.1 2065.5,1029C 2064.94,1029.38 2064.61,1029.88 2064.5,1030.5C 2043.55,1032.54 2022.55,1033.88 2001.5,1034.5C 1996.78,1029.66 1991.78,1029.32 1986.5,1033.5C 1980.24,1032.53 1974.57,1030.19 1969.5,1026.5C 1959.92,1007.77 1952.92,988.102 1948.5,967.5C 1946.94,961.645 1946.27,955.645 1946.5,949.5C 1939.33,950.58 1932.67,953.08 1926.5,957C 1914.27,966.746 1901.93,976.246 1889.5,985.5C 1869.34,991.975 1848.67,994.475 1827.5,993C 1805.2,989.842 1783.54,984.342 1762.5,976.5C 1758.58,971.455 1757.91,966.122 1760.5,960.5C 1780.21,959.178 1799.88,957.345 1819.5,955C 1833.45,953.716 1847.11,951.049 1860.5,947C 1870.67,941.752 1880.34,935.752 1889.5,929C 1905.2,916.811 1920.54,904.144 1935.5,891C 1941.74,886.577 1948.07,882.411 1954.5,878.5C 1966.73,873.52 1979.4,870.187 1992.5,868.5C 1993.18,875.355 1996.51,880.521 2002.5,884C 2012.58,885.507 2022.25,884.173 2031.5,880C 2035.02,876.602 2036.69,872.436 2036.5,867.5 Z"/></g>
<g><path style="opacity:1" fill="#aac5ff" d="M 1277.5,881.5 C 1284.83,880.329 1287.99,883.329 1287,890.5C 1286.17,892 1285,893.167 1283.5,894C 1184.26,910.791 1085.09,927.957 986,945.5C 980.585,943.658 979.085,939.992 981.5,934.5C 983.22,933.066 985.22,932.233 987.5,932C 1084.27,915.039 1180.94,898.205 1277.5,881.5 Z"/></g>
<g><path style="opacity:1" fill="#d6e5fd" d="M 901.5,894.5 C 909.368,936.037 916.701,977.703 923.5,1019.5C 923.67,1020.82 923.337,1021.99 922.5,1023C 917.186,1024.15 912.186,1026.15 907.5,1029C 900.981,1034.1 894.648,1039.43 888.5,1045C 878.532,1052.4 867.365,1056.9 855,1058.5C 843.845,1056.84 834.012,1052.34 825.5,1045C 813.661,1033.84 803.328,1021.5 794.5,1008C 800.5,1007.67 806.5,1007.33 812.5,1007C 828.892,1004.54 843.392,998.043 856,987.5C 856.781,986.056 856.614,984.723 855.5,983.5C 850.549,982.858 845.549,982.525 840.5,982.5C 821.852,984.029 803.185,984.863 784.5,985C 780.084,982.588 776.251,979.422 773,975.5C 765.86,964.575 762.693,952.575 763.5,939.5C 762.126,927.45 765.793,917.284 774.5,909C 792.364,897.284 812.03,892.284 833.5,894C 850.571,914.406 869.571,932.739 890.5,949C 893.206,950.908 896.206,951.741 899.5,951.5C 899.579,948.729 899.079,946.063 898,943.5C 887.526,925.861 875.693,909.194 862.5,893.5C 875.546,892.168 888.546,892.502 901.5,894.5 Z"/></g>
<g><path style="opacity:1" fill="#abc5ff" d="M 1647.5,910.5 C 1651.26,910.071 1654.76,910.737 1658,912.5C 1660.42,917.161 1659.26,920.661 1654.5,923C 1622.08,928.083 1589.75,933.583 1557.5,939.5C 1551.91,938.422 1550.07,935.088 1552,929.5C 1552.83,928.667 1553.67,927.833 1554.5,927C 1585.75,922.088 1616.75,916.588 1647.5,910.5 Z"/></g>
<g><path style="opacity:1" fill="#aac5ff" d="M 1227.5,933.5 C 1236.72,932.214 1239.89,935.881 1237,944.5C 1236.25,945.126 1235.42,945.626 1234.5,946C 1156.13,959.481 1077.8,973.148 999.5,987C 991.193,989.663 987.36,986.83 988,978.5C 988.833,977 990,975.833 991.5,975C 1070.47,962.042 1149.14,948.209 1227.5,933.5 Z"/></g>
<g><path style="opacity:1" fill="#aac5ff" d="M 1507.5,934.5 C 1511.26,934.071 1514.76,934.737 1518,936.5C 1520.48,940.78 1519.64,944.28 1515.5,947C 1465.5,955.666 1415.5,964.332 1365.5,973C 1361.83,973.667 1358.17,973.667 1354.5,973C 1349.85,967.587 1350.85,963.587 1357.5,961C 1407.68,952.478 1457.68,943.645 1507.5,934.5 Z"/></g>
<g><path style="opacity:1" fill="#feaf76" d="M 1740.5,950.5 C 1748.3,951.731 1754.96,955.064 1760.5,960.5C 1757.91,966.122 1758.58,971.455 1762.5,976.5C 1755.83,976.5 1749.17,976.5 1742.5,976.5C 1737.15,974.327 1731.81,971.827 1726.5,969C 1724.96,967.89 1724.3,966.39 1724.5,964.5C 1729.68,966.085 1735.01,966.752 1740.5,966.5C 1740.11,961.799 1739.45,957.133 1738.5,952.5C 1738.75,951.287 1739.41,950.62 1740.5,950.5 Z"/></g>
<g><path style="opacity:1" fill="#037552" d="M 1948.5,967.5 C 1928.8,973.342 1909.14,979.342 1889.5,985.5C 1901.93,976.246 1914.27,966.746 1926.5,957C 1932.67,953.08 1939.33,950.58 1946.5,949.5C 1946.27,955.645 1946.94,961.645 1948.5,967.5 Z"/></g>
<g><path style="opacity:1" fill="#027452" d="M 2090.5,964.5 C 2089.28,980.858 2087.78,997.191 2086,1013.5C 2084.73,1019.49 2082.23,1024.82 2078.5,1029.5C 2073.77,1029.28 2069.1,1029.62 2064.5,1030.5C 2064.61,1029.88 2064.94,1029.38 2065.5,1029C 2064.3,1028.1 2063.47,1026.93 2063,1025.5C 2062.31,1016.57 2064.31,1008.24 2069,1000.5C 2070.14,990.285 2069.14,980.285 2066,970.5C 2065.33,966.167 2065.33,961.833 2066,957.5C 2066.78,955.714 2067.95,954.214 2069.5,953C 2078.15,953.661 2085.15,957.494 2090.5,964.5 Z"/></g>
<g><path style="opacity:1" fill="#e8f2fa" d="M 1948.5,967.5 C 1952.92,988.102 1959.92,1007.77 1969.5,1026.5C 1967.83,1033.41 1968.49,1040.08 1971.5,1046.5C 1966.88,1060.74 1962.55,1075.08 1958.5,1089.5C 1940.16,1082.78 1921.49,1076.94 1902.5,1072C 1863.78,1069.77 1834.61,1085.27 1815,1118.5C 1801.42,1144.14 1793.76,1171.48 1792,1200.5C 1788.89,1202.31 1785.72,1203.97 1782.5,1205.5C 1769.16,1129.14 1755.83,1052.8 1742.5,976.5C 1749.17,976.5 1755.83,976.5 1762.5,976.5C 1783.54,984.342 1805.2,989.842 1827.5,993C 1848.67,994.475 1869.34,991.975 1889.5,985.5C 1909.14,979.342 1928.8,973.342 1948.5,967.5 Z"/></g>
<g><path style="opacity:1" fill="#aac5ff" d="M 1296.5,971.5 C 1303.05,972.87 1304.88,976.537 1302,982.5C 1296.32,984.379 1290.49,985.879 1284.5,987C 1192.11,1002.68 1099.78,1018.68 1007.5,1035C 1000.76,1037.36 996.763,1035.2 995.5,1028.5C 996.219,1026.27 997.552,1024.44 999.5,1023C 1098.63,1005.81 1197.63,988.646 1296.5,971.5 Z"/></g>
<g><path style="opacity:1" fill="#aac5ff" d="M 1519.5,976.5 C 1523.58,976.043 1527.42,976.71 1531,978.5C 1532.79,983.633 1531.29,987.133 1526.5,989C 1446.57,1002.37 1366.73,1016.2 1287,1030.5C 1281.58,1028.66 1280.08,1024.99 1282.5,1019.5C 1284.22,1018.07 1286.22,1017.23 1288.5,1017C 1365.76,1004.12 1442.76,990.624 1519.5,976.5 Z"/></g>
<g><path style="opacity:1" fill="#ff7a35" d="M 1673.5,988.5 C 1676.17,988.5 1678.83,988.5 1681.5,988.5C 1691.94,1066.79 1701.94,1145.12 1711.5,1223.5C 1688.58,1227.98 1665.75,1231.65 1643,1234.5C 1626.54,1157.12 1610.04,1079.79 1593.5,1002.5C 1620.44,998.677 1647.11,994.011 1673.5,988.5 Z"/></g>
<g><path style="opacity:1" fill="#aac5ff" d="M 1243.5,1024.5 C 1252.24,1023.06 1255.4,1026.39 1253,1034.5C 1252.1,1035.7 1250.93,1036.53 1249.5,1037C 1169.44,1050.51 1089.44,1064.34 1009.5,1078.5C 1003.91,1077.42 1002.07,1074.09 1004,1068.5C 1004.83,1067.67 1005.67,1066.83 1006.5,1066C 1085.59,1052.01 1164.59,1038.17 1243.5,1024.5 Z"/></g>
<g><path style="opacity:1" fill="#1f3b66" d="M 1969.5,1026.5 C 1974.57,1030.19 1980.24,1032.53 1986.5,1033.5C 1982.06,1038.32 1981.4,1043.66 1984.5,1049.5C 1980.09,1048.79 1975.76,1047.79 1971.5,1046.5C 1968.49,1040.08 1967.83,1033.41 1969.5,1026.5 Z"/></g>
<g><path style="opacity:1" fill="#edf0f2" d="M 2001.5,1034.5 C 2004.26,1040.22 2004.1,1045.88 2001,1051.5C 1997.24,1054.58 1993.07,1055.24 1988.5,1053.5C 1986.83,1052.5 1985.5,1051.17 1984.5,1049.5C 1981.4,1043.66 1982.06,1038.32 1986.5,1033.5C 1991.78,1029.32 1996.78,1029.66 2001.5,1034.5 Z"/></g>
<g><path style="opacity:1" fill="#243f69" d="M 1991.5,1034.5 C 1998.15,1035.11 2000.98,1038.77 2000,1045.5C 1998.29,1050.04 1995.12,1051.54 1990.5,1050C 1984.96,1044.4 1985.3,1039.24 1991.5,1034.5 Z"/></g>
<g><path style="opacity:1" fill="#d6e5fd" d="M 926.5,1035.5 C 929.049,1049.46 931.383,1063.46 933.5,1077.5C 917.255,1082.29 900.588,1083.46 883.5,1081C 880.376,1080.52 877.543,1079.35 875,1077.5C 874.333,1074.83 874.333,1072.17 875,1069.5C 880.459,1062.37 886.292,1055.54 892.5,1049C 903.077,1042.54 914.41,1038.04 926.5,1035.5 Z"/></g>
<g><path style="opacity:1" fill="#073663" d="M 2078.5,1029.5 C 2079.95,1034.01 2080.78,1038.68 2081,1043.5C 2087.4,1052.9 2093.4,1062.57 2099,1072.5C 2107.49,1086.81 2113.16,1102.14 2116,1118.5C 2117.92,1149.99 2119.75,1181.32 2121.5,1212.5C 2121.78,1227.52 2122.44,1242.52 2123.5,1257.5C 2124.33,1271.97 2126,1286.3 2128.5,1300.5C 2133.03,1317.6 2137.87,1334.6 2143,1351.5C 2155.89,1399.31 2162.39,1447.98 2162.5,1497.5C 2160.27,1500.89 2157.27,1503.39 2153.5,1505C 2147.09,1508.23 2140.42,1509.4 2133.5,1508.5C 2129.63,1507.74 2126.63,1505.74 2124.5,1502.5C 2099.37,1452.92 2075.87,1402.58 2054,1351.5C 2053.82,1354.36 2053.32,1357.03 2052.5,1359.5C 2052.21,1355.89 2052.54,1352.39 2053.5,1349C 2050.61,1342.33 2048.11,1335.49 2046,1328.5C 2038.23,1270.77 2023.9,1214.77 2003,1160.5C 1997.39,1146.61 1990.72,1133.28 1983,1120.5C 1981.14,1097.84 1982.97,1075.51 1988.5,1053.5C 1993.07,1055.24 1997.24,1054.58 2001,1051.5C 2004.1,1045.88 2004.26,1040.22 2001.5,1034.5C 2022.55,1033.88 2043.55,1032.54 2064.5,1030.5C 2069.1,1029.62 2073.77,1029.28 2078.5,1029.5 Z"/></g>
<g><path style="opacity:1" fill="#042d4f" d="M 1971.5,1046.5 C 1975.76,1047.79 1980.09,1048.79 1984.5,1049.5C 1985.5,1051.17 1986.83,1052.5 1988.5,1053.5C 1982.97,1075.51 1981.14,1097.84 1983,1120.5C 1990.72,1133.28 1997.39,1146.61 2003,1160.5C 2023.9,1214.77 2038.23,1270.77 2046,1328.5C 2048.11,1335.49 2050.61,1342.33 2053.5,1349C 2052.54,1352.39 2052.21,1355.89 2052.5,1359.5C 2052.17,1383.2 2051.17,1406.86 2049.5,1430.5C 2047.61,1461.85 2045.61,1493.18 2043.5,1524.5C 2034.58,1530.2 2024.92,1532.7 2014.5,1532C 2013.47,1531.49 2012.47,1530.99 2011.5,1530.5C 2001.38,1525.57 1995.71,1517.57 1994.5,1506.5C 1978.99,1393.09 1963.99,1279.76 1949.5,1166.5C 1949.17,1159.83 1948.83,1153.17 1948.5,1146.5C 1949,1126.99 1952.34,1107.99 1958.5,1089.5C 1962.55,1075.08 1966.88,1060.74 1971.5,1046.5 Z"/></g>
<g><path style="opacity:1" fill="#042d4f" d="M 679.5,1063.5 C 680.139,1064.1 680.472,1064.93 680.5,1066C 676.504,1111.13 672.837,1156.3 669.5,1201.5C 668.645,1204.18 667.478,1206.84 666,1209.5C 634.308,1260.24 602.141,1310.57 569.5,1360.5C 568.096,1346.92 567.096,1333.25 566.5,1319.5C 593.362,1236.58 621.028,1153.91 649.5,1071.5C 659.405,1068.91 669.405,1066.24 679.5,1063.5 Z"/></g>
<g><path style="opacity:1" fill="#063663" d="M 517.5,1070.5 C 528.166,1072.5 538.832,1074.5 549.5,1076.5C 555.789,1077.56 562.123,1078.4 568.5,1079C 595.858,1080.19 622.858,1077.69 649.5,1071.5C 621.028,1153.91 593.362,1236.58 566.5,1319.5C 565.883,1319.61 565.383,1319.94 565,1320.5C 541.799,1388.44 518.799,1456.44 496,1524.5C 495.28,1526.06 494.113,1527.06 492.5,1527.5C 484.133,1531.44 475.466,1532.27 466.5,1530C 463.631,1528.4 460.964,1526.57 458.5,1524.5C 457.554,1463.96 461.054,1403.63 469,1343.5C 471.871,1319.14 477.538,1295.47 486,1272.5C 491.695,1262.77 496.028,1252.44 499,1241.5C 512.709,1191.42 518.042,1140.42 515,1088.5C 516.031,1082.52 516.865,1076.52 517.5,1070.5 Z"/></g>
<g><path style="opacity:1" fill="#cde2fa" d="M 1958.5,1089.5 C 1952.34,1107.99 1949,1126.99 1948.5,1146.5C 1947.57,1145.43 1947.23,1144.1 1947.5,1142.5C 1928.27,1148.95 1910.27,1157.78 1893.5,1169C 1891,1171.5 1888.5,1174 1886,1176.5C 1883.15,1181.97 1884.31,1186.13 1889.5,1189C 1892.5,1189.67 1895.5,1189.67 1898.5,1189C 1915.9,1184.98 1932.56,1178.98 1948.5,1171C 1949.38,1169.64 1949.71,1168.14 1949.5,1166.5C 1963.99,1279.76 1978.99,1393.09 1994.5,1506.5C 1975.03,1505.55 1956.03,1502.05 1937.5,1496C 1919.95,1490.33 1905.78,1480.16 1895,1465.5C 1886.57,1447.78 1881.57,1429.11 1880,1409.5C 1879.81,1389.97 1880.65,1370.47 1882.5,1351C 1881.83,1332.32 1876.33,1315.16 1866,1299.5C 1860.97,1290.14 1854.14,1282.3 1845.5,1276C 1842.65,1275.06 1840.15,1275.56 1838,1277.5C 1836.47,1281.71 1836.13,1286.04 1837,1290.5C 1844.27,1311.64 1851.94,1332.64 1860,1353.5C 1866.28,1371.06 1868.28,1389.06 1866,1407.5C 1863.28,1420.65 1859.95,1433.65 1856,1446.5C 1850.53,1459.97 1842.03,1462.14 1830.5,1453C 1817.6,1440.33 1806.27,1426.5 1796.5,1411.5C 1803.3,1409.53 1810.3,1407.86 1817.5,1406.5C 1805.94,1339.47 1794.27,1272.47 1782.5,1205.5C 1785.72,1203.97 1788.89,1202.31 1792,1200.5C 1793.76,1171.48 1801.42,1144.14 1815,1118.5C 1834.61,1085.27 1863.78,1069.77 1902.5,1072C 1921.49,1076.94 1940.16,1082.78 1958.5,1089.5 Z"/></g>
<g><path style="opacity:1" fill="#093764" d="M 1466.5,1083.5 C 1468.17,1083.5 1469.83,1083.5 1471.5,1083.5C 1472.59,1089.82 1473.59,1096.15 1474.5,1102.5C 1493.55,1100 1510.88,1104.16 1526.5,1115C 1538.37,1125.58 1545.37,1138.75 1547.5,1154.5C 1535,1155.57 1522.67,1157.57 1510.5,1160.5C 1508.11,1151.88 1503.77,1144.38 1497.5,1138C 1492.2,1135.13 1486.53,1133.97 1480.5,1134.5C 1483.3,1152.94 1486.63,1171.27 1490.5,1189.5C 1505.4,1192.04 1520.07,1195.54 1534.5,1200C 1553.72,1208.58 1564.56,1223.42 1567,1244.5C 1570.9,1276.88 1558.07,1299.71 1528.5,1313C 1523.36,1314.99 1518.2,1316.82 1513,1318.5C 1513.89,1328.18 1514.89,1337.85 1516,1347.5C 1511.59,1348.53 1507.09,1349.2 1502.5,1349.5C 1500.89,1340.22 1499.56,1330.89 1498.5,1321.5C 1489.49,1321.67 1480.49,1321.5 1471.5,1321C 1444.5,1316.67 1427.67,1301.17 1421,1274.5C 1420.11,1270.85 1419.78,1267.18 1420,1263.5C 1432.7,1260.66 1445.54,1258.33 1458.5,1256.5C 1460.52,1265.75 1464.19,1274.25 1469.5,1282C 1475.96,1287.1 1483.29,1289.26 1491.5,1288.5C 1488.45,1267.79 1485.11,1247.12 1481.5,1226.5C 1462.26,1227.11 1444.6,1222.28 1428.5,1212C 1412.17,1196.36 1405.34,1177.19 1408,1154.5C 1414.98,1126.86 1432.48,1110.02 1460.5,1104C 1459.15,1097.9 1458.31,1091.73 1458,1085.5C 1460.94,1084.87 1463.77,1084.21 1466.5,1083.5 Z"/></g>
<g><path style="opacity:1" fill="#feae74" d="M 2161.5,1098.5 C 2167.41,1099.46 2173.41,1099.79 2179.5,1099.5C 2180.65,1103.65 2180.81,1107.98 2180,1112.5C 2176.75,1117.76 2172.75,1122.42 2168,1126.5C 2165.22,1130.74 2163.88,1135.41 2164,1140.5C 2163.59,1142.41 2162.43,1143.41 2160.5,1143.5C 2154.51,1140 2150.01,1135 2147,1128.5C 2145.91,1123.02 2147.41,1118.35 2151.5,1114.5C 2148.61,1114.59 2145.61,1114.25 2142.5,1113.5C 2147.78,1109.18 2153.45,1105.35 2159.5,1102C 2160.82,1101.18 2161.49,1100.02 2161.5,1098.5 Z"/></g>
<g><path style="opacity:1" fill="#cfe3fa" d="M 940.5,1119.5 C 941.338,1119.84 941.672,1120.51 941.5,1121.5C 936.908,1120.92 934.075,1122.92 933,1127.5C 932.286,1136.09 933.452,1144.43 936.5,1152.5C 927.005,1143.17 917.338,1134.01 907.5,1125C 911.198,1122.88 915.198,1121.55 919.5,1121C 926.453,1119.84 933.453,1119.34 940.5,1119.5 Z"/></g>
<g><path style="opacity:1" fill="#feebd8" d="M 941.5,1121.5 C 945.733,1121.46 949.4,1122.79 952.5,1125.5C 954.47,1133.58 957.136,1141.41 960.5,1149C 961.449,1149.62 962.282,1149.45 963,1148.5C 963.499,1143.85 963.666,1139.18 963.5,1134.5C 970.513,1134.16 977.513,1134 984.5,1134C 986.324,1134.66 987.657,1135.83 988.5,1137.5C 983.46,1142.56 979.126,1148.22 975.5,1154.5C 976,1154.83 976.5,1155.17 977,1155.5C 982.719,1153.06 988.219,1150.22 993.5,1147C 994.252,1146.33 994.586,1145.5 994.5,1144.5C 997.073,1145.88 998.573,1147.88 999,1150.5C 992.687,1157.89 985.521,1164.22 977.5,1169.5C 976.239,1165.75 973.572,1163.58 969.5,1163C 960.497,1164.67 952.163,1163 944.5,1158C 942.527,1157.5 940.527,1157.34 938.5,1157.5C 937.976,1155.69 937.309,1154.03 936.5,1152.5C 933.452,1144.43 932.286,1136.09 933,1127.5C 934.075,1122.92 936.908,1120.92 941.5,1121.5 Z"/></g>
<g><path style="opacity:1" fill="#cee3fa" d="M 929.5,1171.5 C 895.294,1185.22 867.46,1207.22 846,1237.5C 837.308,1250.23 829.142,1263.23 821.5,1276.5C 806.288,1284.73 791.621,1293.73 777.5,1303.5C 759.544,1298.13 741.211,1295.96 722.5,1297C 716.861,1298.08 711.195,1298.91 705.5,1299.5C 697.538,1289.25 691.372,1277.92 687,1265.5C 683.873,1252.67 685.873,1240.67 693,1229.5C 706.493,1210.84 723.326,1196.01 743.5,1185C 745.167,1184.33 746.833,1184.33 748.5,1185C 758.216,1188.18 767.882,1191.51 777.5,1195C 800.914,1203.02 824.914,1208.52 849.5,1211.5C 852.87,1211.63 856.037,1210.96 859,1209.5C 859.458,1206.9 858.625,1204.74 856.5,1203C 851.004,1199.08 845.337,1195.42 839.5,1192C 820.065,1182.28 800.398,1173.12 780.5,1164.5C 782.944,1162.1 785.61,1159.94 788.5,1158C 820.924,1142.14 854.924,1130.97 890.5,1124.5C 892.374,1124.39 893.874,1125.06 895,1126.5C 905.551,1142.29 917.051,1157.29 929.5,1171.5 Z"/></g>
<g><path style="opacity:1" fill="#083763" d="M 1287.5,1174.5 C 1286.17,1181.97 1285.5,1189.8 1285.5,1198C 1285.83,1205.83 1286.17,1213.67 1286.5,1221.5C 1287.11,1221.38 1287.44,1221.04 1287.5,1220.5C 1302.61,1206.38 1320.61,1200.54 1341.5,1203C 1375.24,1209.74 1394.07,1230.24 1398,1264.5C 1400.52,1286.43 1395.52,1306.43 1383,1324.5C 1369.54,1339.45 1352.7,1347.95 1332.5,1350C 1306.41,1354.42 1284.58,1346.92 1267,1327.5C 1261.22,1319.27 1257.05,1310.27 1254.5,1300.5C 1268.29,1296.76 1282.29,1294.09 1296.5,1292.5C 1304.67,1316.07 1320,1322.24 1342.5,1311C 1354.1,1301.16 1358.26,1288.66 1355,1273.5C 1353.77,1261.86 1348.93,1252.03 1340.5,1244C 1326.27,1236.2 1312.6,1237.2 1299.5,1247C 1296.78,1250.95 1293.95,1254.79 1291,1258.5C 1278.85,1260.29 1266.68,1261.96 1254.5,1263.5C 1253.27,1223.81 1251.6,1184.15 1249.5,1144.5C 1287.2,1138.45 1324.87,1132.11 1362.5,1125.5C 1363.77,1125.57 1364.94,1125.9 1366,1126.5C 1367.97,1137.81 1369.81,1149.14 1371.5,1160.5C 1343.49,1165.07 1315.49,1169.74 1287.5,1174.5 Z"/></g>
<g><path style="opacity:1" fill="#ecc09e" d="M 952.5,1125.5 C 955.901,1128.91 959.568,1131.91 963.5,1134.5C 963.666,1139.18 963.499,1143.85 963,1148.5C 962.282,1149.45 961.449,1149.62 960.5,1149C 957.136,1141.41 954.47,1133.58 952.5,1125.5 Z"/></g>
<g><path style="opacity:1" fill="#edc19f" d="M 988.5,1137.5 C 990.471,1139.81 992.471,1142.14 994.5,1144.5C 994.586,1145.5 994.252,1146.33 993.5,1147C 988.219,1150.22 982.719,1153.06 977,1155.5C 976.5,1155.17 976,1154.83 975.5,1154.5C 979.126,1148.22 983.46,1142.56 988.5,1137.5 Z"/></g>
<g><path style="opacity:1" fill="#f2f8fc" d="M 1462.5,1137.5 C 1463.83,1137.5 1465.17,1137.5 1466.5,1137.5C 1469.38,1154.12 1472.05,1170.79 1474.5,1187.5C 1450.8,1185.3 1441.63,1172.64 1447,1149.5C 1450.66,1143.43 1455.83,1139.43 1462.5,1137.5 Z"/></g>
<g><path style="opacity:1" fill="#e8f2fa" d="M 1948.5,1146.5 C 1948.83,1153.17 1949.17,1159.83 1949.5,1166.5C 1949.71,1168.14 1949.38,1169.64 1948.5,1171C 1932.56,1178.98 1915.9,1184.98 1898.5,1189C 1895.5,1189.67 1892.5,1189.67 1889.5,1189C 1884.31,1186.13 1883.15,1181.97 1886,1176.5C 1888.5,1174 1891,1171.5 1893.5,1169C 1910.27,1157.78 1928.27,1148.95 1947.5,1142.5C 1947.23,1144.1 1947.57,1145.43 1948.5,1146.5 Z"/></g>
<g><path style="opacity:1" fill="#083763" d="M 1209.5,1151.5 C 1210.5,1151.5 1211.5,1151.5 1212.5,1151.5C 1214.72,1162.43 1216.22,1173.43 1217,1184.5C 1180.46,1241.92 1164.96,1304.59 1170.5,1372.5C 1156.11,1374.51 1141.77,1376.84 1127.5,1379.5C 1123.09,1327.32 1132.25,1277.65 1155,1230.5C 1160.28,1218.77 1166.45,1207.6 1173.5,1197C 1139.1,1202.13 1104.76,1207.96 1070.5,1214.5C 1067.31,1202.03 1064.98,1189.37 1063.5,1176.5C 1112.39,1168.77 1161.06,1160.44 1209.5,1151.5 Z"/></g>
<g><path style="opacity:1" fill="#ec6305" d="M 938.5,1157.5 C 940.527,1157.34 942.527,1157.5 944.5,1158C 952.163,1163 960.497,1164.67 969.5,1163C 973.572,1163.58 976.239,1165.75 977.5,1169.5C 977.5,1170.83 977.5,1172.17 977.5,1173.5C 977.64,1175.12 976.973,1176.29 975.5,1177C 971.833,1177.17 968.167,1177.33 964.5,1177.5C 953.081,1176.82 941.748,1175.49 930.5,1173.5C 930.5,1171.83 930.5,1170.17 930.5,1168.5C 931.627,1163.71 934.293,1160.04 938.5,1157.5 Z"/></g>
<g><path style="opacity:1" fill="#feebd9" d="M 930.5,1168.5 C 930.5,1170.17 930.5,1171.83 930.5,1173.5C 941.748,1175.49 953.081,1176.82 964.5,1177.5C 968.167,1177.33 971.833,1177.17 975.5,1177C 976.973,1176.29 977.64,1175.12 977.5,1173.5C 978.158,1174.4 978.824,1175.4 979.5,1176.5C 992.239,1183.06 1003.41,1191.73 1013,1202.5C 1033.21,1228.95 1043.37,1258.95 1043.5,1292.5C 1043.5,1293.17 1043.17,1293.5 1042.5,1293.5C 1041.5,1293.5 1040.5,1293.5 1039.5,1293.5C 1004.83,1293.5 970.167,1293.5 935.5,1293.5C 894.997,1293.83 854.663,1293.5 814.5,1292.5C 816.833,1287.17 819.167,1281.83 821.5,1276.5C 829.142,1263.23 837.308,1250.23 846,1237.5C 867.46,1207.22 895.294,1185.22 929.5,1171.5C 929.263,1170.21 929.596,1169.21 930.5,1168.5 Z"/></g>
<g><path style="opacity:1" fill="#869bb3" d="M 1287.5,1174.5 C 1286.18,1189.93 1286.18,1205.26 1287.5,1220.5C 1287.44,1221.04 1287.11,1221.38 1286.5,1221.5C 1286.17,1213.67 1285.83,1205.83 1285.5,1198C 1285.5,1189.8 1286.17,1181.97 1287.5,1174.5 Z"/></g>
<g><path style="opacity:1" fill="#ffdcbb" d="M 905.5,1205.5 C 911.654,1205.22 917.654,1206.05 923.5,1208C 944.487,1217.39 966.487,1221.39 989.5,1220C 991.378,1221.54 992.878,1223.38 994,1225.5C 997.754,1238.09 1000.25,1250.93 1001.5,1264C 1003.15,1271.19 1000.48,1275.19 993.5,1276C 957.884,1277.65 922.55,1275.31 887.5,1269C 880.227,1267.46 873.227,1265.13 866.5,1262C 864.388,1261.09 863.555,1259.59 864,1257.5C 875.827,1238.51 889.66,1221.18 905.5,1205.5 Z"/></g>
<g><path style="opacity:1" fill="#0a3663" d="M 669.5,1201.5 C 666.553,1240.53 663.219,1279.53 659.5,1318.5C 611.785,1347.58 588.952,1390.25 591,1446.5C 594.411,1478.98 607.244,1506.98 629.5,1530.5C 629.119,1531.93 628.119,1532.76 626.5,1533C 618.754,1533.8 611.087,1533.63 603.5,1532.5C 602.5,1532.5 601.5,1532.5 600.5,1532.5C 584.437,1476.24 574.104,1418.91 569.5,1360.5C 602.141,1310.57 634.308,1260.24 666,1209.5C 667.478,1206.84 668.645,1204.18 669.5,1201.5 Z"/></g>
<g><path style="opacity:1" fill="#cde2fa" d="M 2121.5,1212.5 C 2135.93,1225.52 2147.6,1240.69 2156.5,1258C 2145.51,1258.06 2134.51,1257.89 2123.5,1257.5C 2122.44,1242.52 2121.78,1227.52 2121.5,1212.5 Z"/></g>
<g><path style="opacity:1" fill="#f3f9fc" d="M 1496.5,1229.5 C 1522.37,1233.54 1531.87,1248.21 1525,1273.5C 1520.29,1280.34 1513.96,1284.01 1506,1284.5C 1502.83,1266.14 1499.66,1247.81 1496.5,1229.5 Z"/></g>
<g><path style="opacity:1" fill="#ff7a36" d="M 1682.5,1265.5 C 1703.01,1261.94 1719.51,1268.27 1732,1284.5C 1743.75,1308.21 1739.25,1328.05 1718.5,1344C 1700.23,1353.48 1681.9,1353.81 1663.5,1345C 1648.97,1333.77 1642.81,1318.94 1645,1300.5C 1650.3,1281.03 1662.8,1269.37 1682.5,1265.5 Z"/></g>
<g><path style="opacity:1" fill="#e8f2fa" d="M 1994.5,1506.5 C 1995.71,1517.57 2001.38,1525.57 2011.5,1530.5C 2008.52,1541.65 2001.52,1549.15 1990.5,1553C 1981.61,1556.14 1972.61,1558.8 1963.5,1561C 1960.48,1563.18 1958.48,1566.01 1957.5,1569.5C 1665.5,1569.5 1373.5,1569.5 1081.5,1569.5C 1081.5,1569.17 1081.5,1568.83 1081.5,1568.5C 1083.02,1568.49 1084.18,1567.82 1085,1566.5C 1085.67,1559.83 1085.67,1553.17 1085,1546.5C 1084.1,1545.3 1082.93,1544.47 1081.5,1544C 1072.5,1543.67 1063.5,1543.33 1054.5,1543C 1055.82,1542.18 1056.49,1541.02 1056.5,1539.5C 1302.99,1496 1549.66,1453.33 1796.5,1411.5C 1806.27,1426.5 1817.6,1440.33 1830.5,1453C 1842.03,1462.14 1850.53,1459.97 1856,1446.5C 1859.95,1433.65 1863.28,1420.65 1866,1407.5C 1868.28,1389.06 1866.28,1371.06 1860,1353.5C 1851.94,1332.64 1844.27,1311.64 1837,1290.5C 1836.13,1286.04 1836.47,1281.71 1838,1277.5C 1840.15,1275.56 1842.65,1275.06 1845.5,1276C 1854.14,1282.3 1860.97,1290.14 1866,1299.5C 1876.33,1315.16 1881.83,1332.32 1882.5,1351C 1880.65,1370.47 1879.81,1389.97 1880,1409.5C 1881.57,1429.11 1886.57,1447.78 1895,1465.5C 1905.78,1480.16 1919.95,1490.33 1937.5,1496C 1956.03,1502.05 1975.03,1505.55 1994.5,1506.5 Z"/></g>
<g><path style="opacity:1" fill="#e9f1f7" d="M 821.5,1276.5 C 819.167,1281.83 816.833,1287.17 814.5,1292.5C 811.482,1292.34 808.482,1292.5 805.5,1293C 804.069,1293.47 802.903,1294.3 802,1295.5C 801.5,1301.82 801.334,1308.16 801.5,1314.5C 793.626,1310.44 785.626,1306.77 777.5,1303.5C 791.621,1293.73 806.288,1284.73 821.5,1276.5 Z"/></g>
<g><path style="opacity:1" fill="#fe9e00" d="M 814.5,1292.5 C 854.663,1293.5 894.997,1293.83 935.5,1293.5C 938.187,1303.69 943.854,1311.86 952.5,1318C 950.548,1326.23 949.882,1334.73 950.5,1343.5C 949.5,1343.5 948.5,1343.5 947.5,1343.5C 947.5,1335.17 947.5,1326.83 947.5,1318.5C 940.492,1318.33 933.492,1318.5 926.5,1319C 929.462,1328.93 935.129,1336.93 943.5,1343C 939.179,1343.5 934.846,1343.67 930.5,1343.5C 930.5,1351.83 930.5,1360.17 930.5,1368.5C 934.5,1368.5 938.5,1368.5 942.5,1368.5C 945.187,1378.69 950.854,1386.86 959.5,1393C 954.511,1393.5 949.511,1393.67 944.5,1393.5C 944.5,1401.83 944.5,1410.17 944.5,1418.5C 943.5,1418.5 942.5,1418.5 941.5,1418.5C 941.5,1410.17 941.5,1401.83 941.5,1393.5C 934.5,1393.5 927.5,1393.5 920.5,1393.5C 922.445,1403.89 927.779,1412.06 936.5,1418C 934.527,1418.5 932.527,1418.66 930.5,1418.5C 930.5,1435.17 930.5,1451.83 930.5,1468.5C 929.5,1468.5 928.5,1468.5 927.5,1468.5C 927.667,1452.16 927.5,1435.83 927,1419.5C 920.256,1418.52 913.422,1418.19 906.5,1418.5C 908.816,1428.96 914.483,1437.12 923.5,1443C 917.804,1443.17 912.138,1443.67 906.5,1444.5C 910.091,1455.38 916.758,1463.71 926.5,1469.5C 929.711,1479.26 935.377,1487.26 943.5,1493.5C 944.498,1502.14 944.831,1510.81 944.5,1519.5C 943.5,1519.5 942.5,1519.5 941.5,1519.5C 941.666,1511.16 941.5,1502.83 941,1494.5C 934.256,1493.52 927.422,1493.19 920.5,1493.5C 922.735,1504.24 928.402,1512.74 937.5,1519C 935.19,1519.5 932.857,1519.66 930.5,1519.5C 930.5,1527.83 930.5,1536.17 930.5,1544.5C 932.167,1544.5 933.833,1544.5 935.5,1544.5C 937.735,1553.46 942.401,1560.96 949.5,1567C 951.677,1568.2 954.011,1568.7 956.5,1568.5C 957.5,1568.5 958.5,1568.5 959.5,1568.5C 986.167,1568.5 1012.83,1568.5 1039.5,1568.5C 1040.5,1568.5 1041.5,1568.5 1042.5,1568.5C 1044.83,1568.5 1047.17,1568.5 1049.5,1568.5C 1060.17,1568.5 1070.83,1568.5 1081.5,1568.5C 1081.5,1568.83 1081.5,1569.17 1081.5,1569.5C 989.167,1569.5 896.833,1569.5 804.5,1569.5C 801.924,1567.11 800.924,1564.11 801.5,1560.5C 845.059,1546.44 875.226,1518.11 892,1475.5C 907.293,1415.76 890.126,1367.92 840.5,1332C 828.98,1324.66 816.647,1319.16 803.5,1315.5C 802.833,1315.17 802.167,1314.83 801.5,1314.5C 801.334,1308.16 801.5,1301.82 802,1295.5C 802.903,1294.3 804.069,1293.47 805.5,1293C 808.482,1292.5 811.482,1292.34 814.5,1292.5 Z"/></g>
<g><path style="opacity:1" fill="#ffb300" d="M 935.5,1293.5 C 970.167,1293.5 1004.83,1293.5 1039.5,1293.5C 1040.83,1318.5 1042.17,1343.5 1043.5,1368.5C 1044.5,1368.5 1045.5,1368.5 1046.5,1368.5C 1044.55,1401.8 1043.22,1435.13 1042.5,1468.5C 1041.19,1452.19 1040.53,1435.86 1040.5,1419.5C 1039.5,1419.5 1038.5,1419.5 1037.5,1419.5C 1037.5,1435.83 1037.5,1452.17 1037.5,1468.5C 1038.5,1468.5 1039.5,1468.5 1040.5,1468.5C 1040.33,1476.84 1040.5,1485.17 1041,1493.5C 1042.01,1494.34 1043.18,1494.67 1044.5,1494.5C 1044.19,1510.83 1043.86,1527.17 1043.5,1543.5C 1044.5,1543.5 1045.5,1543.5 1046.5,1543.5C 1046.88,1526.83 1047.22,1510.17 1047.5,1493.5C 1046.5,1493.5 1045.5,1493.5 1044.5,1493.5C 1044.5,1485.17 1044.5,1476.83 1044.5,1468.5C 1045.5,1468.5 1046.5,1468.5 1047.5,1468.5C 1047.5,1455.99 1047.17,1443.49 1046.5,1431C 1047.5,1410.16 1048.5,1389.33 1049.5,1368.5C 1050.96,1368.57 1052.29,1368.23 1053.5,1367.5C 1054.21,1368.4 1055.21,1368.74 1056.5,1368.5C 1056.83,1385.17 1057.17,1401.83 1057.5,1418.5C 1060.17,1418.5 1062.83,1418.5 1065.5,1418.5C 1062.17,1419.17 1058.83,1419.83 1055.5,1420.5C 1054.51,1411.68 1054.17,1402.68 1054.5,1393.5C 1053.17,1393.5 1051.83,1393.5 1050.5,1393.5C 1049.91,1410.33 1049.24,1427.16 1048.5,1444C 1050.84,1473.18 1050.84,1502.34 1048.5,1531.5C 1049.18,1543.83 1049.51,1556.16 1049.5,1568.5C 1047.17,1568.5 1044.83,1568.5 1042.5,1568.5C 1041.78,1552.17 1041.11,1535.84 1040.5,1519.5C 1039.5,1519.5 1038.5,1519.5 1037.5,1519.5C 1038.22,1535.83 1038.89,1552.16 1039.5,1568.5C 1012.83,1568.5 986.167,1568.5 959.5,1568.5C 960.114,1552.16 960.78,1535.83 961.5,1519.5C 960.5,1519.5 959.5,1519.5 958.5,1519.5C 957.78,1535.83 957.114,1552.16 956.5,1568.5C 954.011,1568.7 951.677,1568.2 949.5,1567C 942.401,1560.96 937.735,1553.46 935.5,1544.5C 933.833,1544.5 932.167,1544.5 930.5,1544.5C 930.5,1536.17 930.5,1527.83 930.5,1519.5C 932.857,1519.66 935.19,1519.5 937.5,1519C 928.402,1512.74 922.735,1504.24 920.5,1493.5C 927.422,1493.19 934.256,1493.52 941,1494.5C 941.5,1502.83 941.666,1511.16 941.5,1519.5C 942.5,1519.5 943.5,1519.5 944.5,1519.5C 944.831,1510.81 944.498,1502.14 943.5,1493.5C 935.377,1487.26 929.711,1479.26 926.5,1469.5C 916.758,1463.71 910.091,1455.38 906.5,1444.5C 912.138,1443.67 917.804,1443.17 923.5,1443C 914.483,1437.12 908.816,1428.96 906.5,1418.5C 913.422,1418.19 920.256,1418.52 927,1419.5C 927.5,1435.83 927.667,1452.16 927.5,1468.5C 928.5,1468.5 929.5,1468.5 930.5,1468.5C 930.5,1451.83 930.5,1435.17 930.5,1418.5C 932.527,1418.66 934.527,1418.5 936.5,1418C 927.779,1412.06 922.445,1403.89 920.5,1393.5C 927.5,1393.5 934.5,1393.5 941.5,1393.5C 941.5,1401.83 941.5,1410.17 941.5,1418.5C 942.5,1418.5 943.5,1418.5 944.5,1418.5C 944.5,1410.17 944.5,1401.83 944.5,1393.5C 949.511,1393.67 954.511,1393.5 959.5,1393C 950.854,1386.86 945.187,1378.69 942.5,1368.5C 938.5,1368.5 934.5,1368.5 930.5,1368.5C 930.5,1360.17 930.5,1351.83 930.5,1343.5C 934.846,1343.67 939.179,1343.5 943.5,1343C 935.129,1336.93 929.462,1328.93 926.5,1319C 933.492,1318.5 940.492,1318.33 947.5,1318.5C 947.5,1326.83 947.5,1335.17 947.5,1343.5C 948.5,1343.5 949.5,1343.5 950.5,1343.5C 949.882,1334.73 950.548,1326.23 952.5,1318C 943.854,1311.86 938.187,1303.69 935.5,1293.5 Z"/></g>
<g><path style="opacity:1" fill="#ffb403" d="M 1043.5,1292.5 C 1045.5,1292.5 1047.5,1292.5 1049.5,1292.5C 1050.12,1309.5 1050.78,1326.5 1051.5,1343.5C 1050.5,1343.5 1049.5,1343.5 1048.5,1343.5C 1048.17,1376.83 1047.83,1376.83 1047.5,1343.5C 1046.5,1343.5 1045.5,1343.5 1044.5,1343.5C 1043.83,1326.83 1043.17,1310.17 1042.5,1293.5C 1043.17,1293.5 1043.5,1293.17 1043.5,1292.5 Z"/></g>
<g><path style="opacity:1" fill="#ffb406" d="M 1052.5,1292.5 C 1054.83,1292.5 1057.17,1292.5 1059.5,1292.5C 1058.88,1309.5 1058.22,1326.5 1057.5,1343.5C 1056.5,1343.5 1055.5,1343.5 1054.5,1343.5C 1053.78,1326.5 1053.12,1309.5 1052.5,1292.5 Z"/></g>
<g><path style="opacity:1" fill="#ff9f01" d="M 1059.5,1292.5 C 1060.5,1292.5 1061.5,1292.5 1062.5,1292.5C 1061.88,1309.5 1061.22,1326.5 1060.5,1343.5C 1059.5,1343.5 1058.5,1343.5 1057.5,1343.5C 1058.22,1326.5 1058.88,1309.5 1059.5,1292.5 Z"/></g>
<g><path style="opacity:1" fill="#ffa809" d="M 1062.5,1292.5 C 1069.62,1292.08 1076.62,1292.58 1083.5,1294C 1084,1294.5 1084.5,1295 1085,1295.5C 1085.17,1298.83 1085.33,1302.17 1085.5,1305.5C 1087.85,1314.98 1084.18,1319.48 1074.5,1319C 1075.33,1319.83 1076.17,1320.67 1077,1321.5C 1077.67,1327.83 1077.67,1334.17 1077,1340.5C 1076.17,1341.33 1075.33,1342.17 1074.5,1343C 1069.85,1343.5 1065.18,1343.67 1060.5,1343.5C 1061.22,1326.5 1061.88,1309.5 1062.5,1292.5 Z"/></g>
<g><path style="opacity:1" fill="#f17d02" d="M 777.5,1303.5 C 785.626,1306.77 793.626,1310.44 801.5,1314.5C 802.167,1314.83 802.833,1315.17 803.5,1315.5C 857.935,1353.28 877.435,1404.61 862,1469.5C 852.076,1500.53 833.576,1525.03 806.5,1543C 805.563,1543.69 804.897,1543.53 804.5,1542.5C 839.181,1515.13 856.848,1479.13 857.5,1434.5C 854.979,1378.52 828.646,1338.35 778.5,1314C 743.34,1299.25 708.007,1298.75 672.5,1312.5C 682.897,1306.81 693.897,1302.48 705.5,1299.5C 711.195,1298.91 716.861,1298.08 722.5,1297C 741.211,1295.96 759.544,1298.13 777.5,1303.5 Z"/></g>
<g><path style="opacity:1" fill="#cde2fa" d="M 2128.5,1300.5 C 2149.5,1302.89 2170.5,1305.39 2191.5,1308C 2210.44,1332.72 2223.94,1360.22 2232,1390.5C 2239.83,1420.41 2232.66,1445.91 2210.5,1467C 2196.1,1479.2 2180.43,1489.36 2163.5,1497.5C 2163.17,1497.5 2162.83,1497.5 2162.5,1497.5C 2162.39,1447.98 2155.89,1399.31 2143,1351.5C 2137.87,1334.6 2133.03,1317.6 2128.5,1300.5 Z"/></g>
<g><path style="opacity:1" fill="#feb403" d="M 804.5,1542.5 C 803.094,1542.97 802.427,1543.97 802.5,1545.5C 782.077,1558.08 760.077,1566.08 736.5,1569.5C 728.167,1569.5 719.833,1569.5 711.5,1569.5C 679.797,1565.65 652.463,1552.65 629.5,1530.5C 607.244,1506.98 594.411,1478.98 591,1446.5C 588.952,1390.25 611.785,1347.58 659.5,1318.5C 663.984,1316.76 668.317,1314.76 672.5,1312.5C 708.007,1298.75 743.34,1299.25 778.5,1314C 828.646,1338.35 854.979,1378.52 857.5,1434.5C 856.848,1479.13 839.181,1515.13 804.5,1542.5 Z"/></g>
<g><path style="opacity:1" fill="#fe8c00" d="M 803.5,1315.5 C 816.647,1319.16 828.98,1324.66 840.5,1332C 890.126,1367.92 907.293,1415.76 892,1475.5C 875.226,1518.11 845.059,1546.44 801.5,1560.5C 801.274,1555.44 801.608,1550.44 802.5,1545.5C 802.427,1543.97 803.094,1542.97 804.5,1542.5C 804.897,1543.53 805.563,1543.69 806.5,1543C 833.576,1525.03 852.076,1500.53 862,1469.5C 877.435,1404.61 857.935,1353.28 803.5,1315.5 Z"/></g>
<g><path style="opacity:1" fill="#ffa000" d="M 714.5,1317.5 C 776.67,1316.81 818.504,1345.48 840,1403.5C 852.842,1460.28 835.675,1505.45 788.5,1539C 758.826,1556.78 727.159,1561.44 693.5,1553C 646.576,1538.08 617.742,1506.58 607,1458.5C 600.41,1404.87 619.577,1363.37 664.5,1334C 680.205,1325.15 696.871,1319.65 714.5,1317.5 Z"/></g>
<g><path style="opacity:1" fill="#ffa100" d="M 978.5,1318.5 C 979.833,1318.5 981.167,1318.5 982.5,1318.5C 982.5,1335.17 982.5,1351.83 982.5,1368.5C 981.5,1368.5 980.5,1368.5 979.5,1368.5C 979.115,1351.83 978.782,1335.17 978.5,1318.5 Z"/></g>
<g><path style="opacity:1" fill="#ff9f00" d="M 999.5,1318.5 C 1000.5,1318.5 1001.5,1318.5 1002.5,1318.5C 1002.17,1335.17 1001.83,1351.83 1001.5,1368.5C 1000.5,1368.5 999.5,1368.5 998.5,1368.5C 998.833,1351.83 999.167,1335.17 999.5,1318.5 Z"/></g>
<g><path style="opacity:1" fill="#ffb400" d="M 710.5,1321.5 C 768.038,1318.33 808.872,1342.67 833,1394.5C 846.744,1433.3 842.41,1469.96 820,1504.5C 788.258,1544.77 747.091,1559.94 696.5,1550C 641.61,1532.6 612.277,1495.1 608.5,1437.5C 612.073,1380.77 640.739,1343.27 694.5,1325C 700.058,1324.26 705.392,1323.09 710.5,1321.5 Z"/></g>
<g><path style="opacity:1" fill="#e7f1f9" d="M 566.5,1319.5 C 567.096,1333.25 568.096,1346.92 569.5,1360.5C 574.104,1418.91 584.437,1476.24 600.5,1532.5C 601.5,1532.5 602.5,1532.5 603.5,1532.5C 602.293,1544.85 602.293,1557.18 603.5,1569.5C 588.5,1569.5 573.5,1569.5 558.5,1569.5C 557.115,1564.94 554.115,1561.78 549.5,1560C 534.716,1558.14 520.716,1553.8 507.5,1547C 499.985,1542.33 494.985,1535.83 492.5,1527.5C 494.113,1527.06 495.28,1526.06 496,1524.5C 518.799,1456.44 541.799,1388.44 565,1320.5C 565.383,1319.94 565.883,1319.61 566.5,1319.5 Z"/></g>
<g><path style="opacity:1" fill="#ffb400" d="M 907.5,1343.5 C 914.167,1343.5 920.833,1343.5 927.5,1343.5C 927.5,1351.83 927.5,1360.17 927.5,1368.5C 926.127,1368.66 924.793,1368.49 923.5,1368C 917.565,1363.07 912.732,1357.23 909,1350.5C 908.023,1348.26 907.523,1345.93 907.5,1343.5 Z"/></g>
<g><path style="opacity:1" fill="#ff9f00" d="M 1018.5,1318.5 C 1019.5,1318.5 1020.5,1318.5 1021.5,1318.5C 1021.5,1326.83 1021.5,1335.17 1021.5,1343.5C 1022.5,1343.5 1023.5,1343.5 1024.5,1343.5C 1024.5,1351.83 1024.5,1360.17 1024.5,1368.5C 1023.5,1368.5 1022.5,1368.5 1021.5,1368.5C 1020.3,1351.96 1019.3,1335.29 1018.5,1318.5 Z"/></g>
<g><path style="opacity:1" fill="#ff9f00" d="M 700.5,1349.5 C 701.376,1349.37 702.043,1349.7 702.5,1350.5C 704.935,1355.98 707.268,1361.48 709.5,1367C 726.173,1363.96 740.673,1368.12 753,1379.5C 756.647,1383.82 759.48,1388.66 761.5,1394C 753.351,1398.39 744.851,1402.23 736,1405.5C 732.644,1401.34 729.144,1397.17 725.5,1393C 713.607,1388.37 704.44,1391.53 698,1402.5C 696.561,1413.47 701.061,1420.63 711.5,1424C 724.5,1424.33 737.5,1424.67 750.5,1425C 776.917,1429.32 788.75,1444.82 786,1471.5C 781.88,1483.95 773.88,1492.95 762,1498.5C 762.7,1504.43 764.533,1510.1 767.5,1515.5C 763.178,1518.33 758.511,1520.66 753.5,1522.5C 750.585,1516.95 747.751,1511.28 745,1505.5C 718.713,1513.48 699.88,1505.14 688.5,1480.5C 697.633,1476.26 706.966,1472.6 716.5,1469.5C 720.278,1481.08 728.278,1485.91 740.5,1484C 747.779,1482.04 753.279,1477.87 757,1471.5C 759.185,1461.04 755.352,1453.87 745.5,1450C 730.879,1448.75 716.212,1448.09 701.5,1448C 677.206,1442.01 666.706,1426.51 670,1401.5C 674.598,1389.13 682.765,1379.96 694.5,1374C 691.574,1368.01 689.407,1361.84 688,1355.5C 692.303,1353.6 696.47,1351.6 700.5,1349.5 Z"/></g>
<g><path style="opacity:1" fill="#cce1f9" d="M 2124.5,1502.5 C 2109.58,1502.46 2097.75,1496.46 2089,1484.5C 2076.58,1463.33 2063.92,1442.33 2051,1421.5C 2050.82,1424.69 2050.32,1427.69 2049.5,1430.5C 2051.17,1406.86 2052.17,1383.2 2052.5,1359.5C 2053.32,1357.03 2053.82,1354.36 2054,1351.5C 2075.87,1402.58 2099.37,1452.92 2124.5,1502.5 Z"/></g>
<g><path style="opacity:1" fill="#ff9f00" d="M 994.5,1368.5 C 995.5,1368.5 996.5,1368.5 997.5,1368.5C 996.833,1385.17 996.167,1401.83 995.5,1418.5C 994.5,1418.5 993.5,1418.5 992.5,1418.5C 993.167,1401.83 993.833,1385.17 994.5,1368.5 Z"/></g>
<g><path style="opacity:1" fill="#ffa000" d="M 1030.5,1318.5 C 1031.83,1318.5 1033.17,1318.5 1034.5,1318.5C 1034.84,1351.86 1035.84,1385.19 1037.5,1418.5C 1036.5,1418.5 1035.5,1418.5 1034.5,1418.5C 1033.17,1385.17 1031.83,1351.83 1030.5,1318.5 Z"/></g>
<g><path style="opacity:1" fill="#ffa100" d="M 1049.5,1292.5 C 1050.5,1292.5 1051.5,1292.5 1052.5,1292.5C 1053.12,1309.5 1053.78,1326.5 1054.5,1343.5C 1055.12,1344.63 1055.96,1345.63 1057,1346.5C 1057.67,1352.5 1057.67,1358.5 1057,1364.5C 1056.58,1366.43 1055.41,1367.43 1053.5,1367.5C 1052.29,1368.23 1050.96,1368.57 1049.5,1368.5C 1048.5,1389.33 1047.5,1410.16 1046.5,1431C 1047.17,1443.49 1047.5,1455.99 1047.5,1468.5C 1046.5,1468.5 1045.5,1468.5 1044.5,1468.5C 1044.5,1476.83 1044.5,1485.17 1044.5,1493.5C 1045.5,1493.5 1046.5,1493.5 1047.5,1493.5C 1047.22,1510.17 1046.88,1526.83 1046.5,1543.5C 1045.5,1543.5 1044.5,1543.5 1043.5,1543.5C 1043.86,1527.17 1044.19,1510.83 1044.5,1494.5C 1043.18,1494.67 1042.01,1494.34 1041,1493.5C 1040.5,1485.17 1040.33,1476.84 1040.5,1468.5C 1039.5,1468.5 1038.5,1468.5 1037.5,1468.5C 1037.5,1452.17 1037.5,1435.83 1037.5,1419.5C 1038.5,1419.5 1039.5,1419.5 1040.5,1419.5C 1040.53,1435.86 1041.19,1452.19 1042.5,1468.5C 1043.22,1435.13 1044.55,1401.8 1046.5,1368.5C 1045.5,1368.5 1044.5,1368.5 1043.5,1368.5C 1042.17,1343.5 1040.83,1318.5 1039.5,1293.5C 1040.5,1293.5 1041.5,1293.5 1042.5,1293.5C 1043.17,1310.17 1043.83,1326.83 1044.5,1343.5C 1045.5,1343.5 1046.5,1343.5 1047.5,1343.5C 1047.83,1376.83 1048.17,1376.83 1048.5,1343.5C 1049.5,1343.5 1050.5,1343.5 1051.5,1343.5C 1050.78,1326.5 1050.12,1309.5 1049.5,1292.5 Z"/></g>
<g><path style="opacity:1" fill="#ffa901" d="M 1056.5,1368.5 C 1067.84,1368.33 1079.17,1368.5 1090.5,1369C 1091,1369.5 1091.5,1370 1092,1370.5C 1092.67,1377.5 1092.67,1384.5 1092,1391.5C 1091.25,1392.13 1090.42,1392.63 1089.5,1393C 1082.17,1393.33 1074.83,1393.67 1067.5,1394C 1068.33,1394.83 1069.17,1395.67 1070,1396.5C 1070.67,1403.17 1070.67,1409.83 1070,1416.5C 1068.89,1418.04 1067.39,1418.7 1065.5,1418.5C 1062.83,1418.5 1060.17,1418.5 1057.5,1418.5C 1057.17,1401.83 1056.83,1385.17 1056.5,1368.5 Z"/></g>
<g><path style="opacity:1" fill="#ff9f00" d="M 1014.5,1368.5 C 1015.5,1368.5 1016.5,1368.5 1017.5,1368.5C 1016.86,1385.31 1015.69,1401.97 1014,1418.5C 1013.5,1435.16 1013.33,1451.83 1013.5,1468.5C 1012.5,1468.5 1011.5,1468.5 1010.5,1468.5C 1010.52,1443.49 1010.85,1418.49 1011.5,1393.5C 1012.5,1393.5 1013.5,1393.5 1014.5,1393.5C 1014.5,1385.17 1014.5,1376.83 1014.5,1368.5 Z"/></g>
<g><path style="opacity:1" fill="#ff9f00" d="M 958.5,1419.5 C 959.5,1419.5 960.5,1419.5 961.5,1419.5C 961.5,1435.83 961.5,1452.17 961.5,1468.5C 960.5,1468.5 959.5,1468.5 958.5,1468.5C 958.5,1452.17 958.5,1435.83 958.5,1419.5 Z"/></g>
<g><path style="opacity:1" fill="#ffa000" d="M 978.5,1419.5 C 979.5,1419.5 980.5,1419.5 981.5,1419.5C 982.808,1444.5 982.808,1469.5 981.5,1494.5C 980.5,1494.5 979.5,1494.5 978.5,1494.5C 978.5,1469.5 978.5,1444.5 978.5,1419.5 Z"/></g>
<g><path style="opacity:1" fill="#ff9f00" d="M 997.5,1419.5 C 998.5,1419.5 999.5,1419.5 1000.5,1419.5C 1001.22,1444.5 1001.89,1469.5 1002.5,1494.5C 1001.5,1494.5 1000.5,1494.5 999.5,1494.5C 998.887,1469.5 998.22,1444.5 997.5,1419.5 Z"/></g>
<g><path style="opacity:1" fill="#ff9f00" d="M 1020.5,1419.5 C 1021.5,1419.5 1022.5,1419.5 1023.5,1419.5C 1023.86,1435.83 1024.19,1452.17 1024.5,1468.5C 1023.5,1468.5 1022.5,1468.5 1021.5,1468.5C 1021.19,1452.17 1020.86,1435.83 1020.5,1419.5 Z"/></g>
<g><path style="opacity:1" fill="#ff9f00" d="M 1030.5,1419.5 C 1031.5,1419.5 1032.5,1419.5 1033.5,1419.5C 1034.83,1444.17 1034.83,1468.83 1033.5,1493.5C 1032.5,1493.5 1031.5,1493.5 1030.5,1493.5C 1031.81,1468.83 1031.81,1444.17 1030.5,1419.5 Z"/></g>
<g><path style="opacity:1" fill="#e8f2fa" d="M 2124.5,1502.5 C 2126.63,1505.74 2129.63,1507.74 2133.5,1508.5C 2134.21,1509.4 2135.21,1509.74 2136.5,1509.5C 2136.67,1520.51 2136.5,1531.51 2136,1542.5C 2134.7,1553.8 2128.53,1560.63 2117.5,1563C 2115.18,1564.15 2113.85,1565.98 2113.5,1568.5C 2089.81,1569.16 2066.48,1568.49 2043.5,1566.5C 2043.5,1552.5 2043.5,1538.5 2043.5,1524.5C 2045.61,1493.18 2047.61,1461.85 2049.5,1430.5C 2050.32,1427.69 2050.82,1424.69 2051,1421.5C 2063.92,1442.33 2076.58,1463.33 2089,1484.5C 2097.75,1496.46 2109.58,1502.46 2124.5,1502.5 Z"/></g>
<g><path style="opacity:1" fill="#ffa605" d="M 1055.5,1420.5 C 1056.65,1426.99 1056.82,1433.65 1056,1440.5C 1055.5,1441.67 1054.67,1442.5 1053.5,1443C 1054.67,1444.17 1055.83,1445.33 1057,1446.5C 1057.67,1452.83 1057.67,1459.17 1057,1465.5C 1056.17,1466.33 1055.33,1467.17 1054.5,1468C 1061.61,1468.07 1068.61,1468.74 1075.5,1470C 1076,1470.5 1076.5,1471 1077,1471.5C 1077.17,1474.67 1077.33,1477.83 1077.5,1481C 1079.64,1489.17 1076.64,1493.83 1068.5,1495C 1069,1495.5 1069.5,1496 1070,1496.5C 1070.67,1503.17 1070.67,1509.83 1070,1516.5C 1069.17,1517.33 1068.33,1518.17 1067.5,1519C 1063.17,1519.33 1058.83,1519.67 1054.5,1520C 1055,1520.5 1055.5,1521 1056,1521.5C 1056.5,1527.49 1056.67,1533.49 1056.5,1539.5C 1056.49,1541.02 1055.82,1542.18 1054.5,1543C 1063.5,1543.33 1072.5,1543.67 1081.5,1544C 1082.93,1544.47 1084.1,1545.3 1085,1546.5C 1085.67,1553.17 1085.67,1559.83 1085,1566.5C 1084.18,1567.82 1083.02,1568.49 1081.5,1568.5C 1070.83,1568.5 1060.17,1568.5 1049.5,1568.5C 1049.51,1556.16 1049.18,1543.83 1048.5,1531.5C 1050.84,1502.34 1050.84,1473.18 1048.5,1444C 1049.24,1427.16 1049.91,1410.33 1050.5,1393.5C 1051.83,1393.5 1053.17,1393.5 1054.5,1393.5C 1054.17,1402.68 1054.51,1411.68 1055.5,1420.5 Z"/></g>
<g><path style="opacity:1" fill="#fe9f00" d="M 1011.5,1494.5 C 1012.5,1494.5 1013.5,1494.5 1014.5,1494.5C 1014.19,1510.83 1013.86,1527.17 1013.5,1543.5C 1012.5,1543.5 1011.5,1543.5 1010.5,1543.5C 1010.86,1527.17 1011.19,1510.83 1011.5,1494.5 Z"/></g>
<g><path style="opacity:1" fill="#365c8b" d="M 2162.5,1497.5 C 2162.83,1497.5 2163.17,1497.5 2163.5,1497.5C 2168.17,1503 2172.67,1508.67 2177,1514.5C 2180.49,1521.04 2180.16,1527.38 2176,1533.5C 2166.94,1541.22 2161.27,1550.88 2159,1562.5C 2157.99,1565.2 2156.49,1567.54 2154.5,1569.5C 2140.83,1569.5 2127.17,1569.5 2113.5,1569.5C 2113.5,1569.17 2113.5,1568.83 2113.5,1568.5C 2113.85,1565.98 2115.18,1564.15 2117.5,1563C 2128.53,1560.63 2134.7,1553.8 2136,1542.5C 2136.5,1531.51 2136.67,1520.51 2136.5,1509.5C 2135.21,1509.74 2134.21,1509.4 2133.5,1508.5C 2140.42,1509.4 2147.09,1508.23 2153.5,1505C 2157.27,1503.39 2160.27,1500.89 2162.5,1497.5 Z"/></g>
<g><path style="opacity:1" fill="#ffb400" d="M 906.5,1519.5 C 913.5,1519.5 920.5,1519.5 927.5,1519.5C 927.666,1527.51 927.5,1535.51 927,1543.5C 926.439,1544.02 925.772,1544.36 925,1544.5C 915.609,1538.6 909.442,1530.27 906.5,1519.5 Z"/></g>
<g><path style="opacity:1" fill="#ff9f00" d="M 959.5,1568.5 C 958.5,1568.5 957.5,1568.5 956.5,1568.5C 957.114,1552.16 957.78,1535.83 958.5,1519.5C 959.5,1519.5 960.5,1519.5 961.5,1519.5C 960.78,1535.83 960.114,1552.16 959.5,1568.5 Z"/></g>
<g><path style="opacity:1" fill="#355c8a" d="M 458.5,1524.5 C 460.964,1526.57 463.631,1528.4 466.5,1530C 475.466,1532.27 484.133,1531.44 492.5,1527.5C 494.985,1535.83 499.985,1542.33 507.5,1547C 520.716,1553.8 534.716,1558.14 549.5,1560C 554.115,1561.78 557.115,1564.94 558.5,1569.5C 524.5,1569.5 490.5,1569.5 456.5,1569.5C 456.737,1568.21 456.404,1567.21 455.5,1566.5C 454.875,1552.33 455.875,1538.33 458.5,1524.5 Z"/></g>
<g><path style="opacity:1" fill="#355c8a" d="M 2043.5,1524.5 C 2043.5,1538.5 2043.5,1552.5 2043.5,1566.5C 2042.6,1567.21 2042.26,1568.21 2042.5,1569.5C 2014.17,1569.5 1985.83,1569.5 1957.5,1569.5C 1958.48,1566.01 1960.48,1563.18 1963.5,1561C 1972.61,1558.8 1981.61,1556.14 1990.5,1553C 2001.52,1549.15 2008.52,1541.65 2011.5,1530.5C 2012.47,1530.99 2013.47,1531.49 2014.5,1532C 2024.92,1532.7 2034.58,1530.2 2043.5,1524.5 Z"/></g>
<g><path style="opacity:1" fill="#365c8a" d="M 629.5,1530.5 C 652.463,1552.65 679.797,1565.65 711.5,1569.5C 675.5,1569.5 639.5,1569.5 603.5,1569.5C 602.293,1557.18 602.293,1544.85 603.5,1532.5C 611.087,1533.63 618.754,1533.8 626.5,1533C 628.119,1532.76 629.119,1531.93 629.5,1530.5 Z"/></g>
<g><path style="opacity:1" fill="#ff9f00" d="M 1042.5,1568.5 C 1041.5,1568.5 1040.5,1568.5 1039.5,1568.5C 1038.89,1552.16 1038.22,1535.83 1037.5,1519.5C 1038.5,1519.5 1039.5,1519.5 1040.5,1519.5C 1041.11,1535.84 1041.78,1552.17 1042.5,1568.5 Z"/></g>
<g><path style="opacity:1" fill="#e5ecf0" d="M 802.5,1545.5 C 801.608,1550.44 801.274,1555.44 801.5,1560.5C 800.924,1564.11 801.924,1567.11 804.5,1569.5C 781.833,1569.5 759.167,1569.5 736.5,1569.5C 760.077,1566.08 782.077,1558.08 802.5,1545.5 Z"/></g>
<g><path style="opacity:0.922" fill="#2c3554" d="M 172.5,1568.5 C 173.167,1568.5 173.833,1568.5 174.5,1568.5C 268.332,1569.5 362.332,1569.83 456.5,1569.5C 490.5,1569.5 524.5,1569.5 558.5,1569.5C 573.5,1569.5 588.5,1569.5 603.5,1569.5C 639.5,1569.5 675.5,1569.5 711.5,1569.5C 719.833,1569.5 728.167,1569.5 736.5,1569.5C 759.167,1569.5 781.833,1569.5 804.5,1569.5C 896.833,1569.5 989.167,1569.5 1081.5,1569.5C 1373.5,1569.5 1665.5,1569.5 1957.5,1569.5C 1985.83,1569.5 2014.17,1569.5 2042.5,1569.5C 2066.17,1569.5 2089.83,1569.5 2113.5,1569.5C 2127.17,1569.5 2140.83,1569.5 2154.5,1569.5C 2243.24,1569.83 2331.9,1569.5 2420.5,1568.5C 2443.84,1568.33 2467.17,1568.5 2490.5,1569C 2493.17,1571.33 2493.17,1573.67 2490.5,1576C 2090.67,1576.17 1690.83,1576.33 1291,1576.5C 891.167,1576.33 491.333,1576.17 91.5,1576C 89.9414,1573.36 90.2747,1571.02 92.5,1569C 119.165,1568.5 145.831,1568.33 172.5,1568.5 Z"/></g>
<g><path style="opacity:1" fill="#b9c3d0" d="M 455.5,1566.5 C 456.404,1567.21 456.737,1568.21 456.5,1569.5C 362.332,1569.83 268.332,1569.5 174.5,1568.5C 268.506,1569.16 362.173,1568.5 455.5,1566.5 Z"/></g>
<g><path style="opacity:1" fill="#bac4d1" d="M 2043.5,1566.5 C 2066.48,1568.49 2089.81,1569.16 2113.5,1568.5C 2113.5,1568.83 2113.5,1569.17 2113.5,1569.5C 2089.83,1569.5 2066.17,1569.5 2042.5,1569.5C 2042.26,1568.21 2042.6,1567.21 2043.5,1566.5 Z"/></g>
</svg>
